<svg id="svg" version="1.1" xmlns="http://www.w3.org/2000/svg" xmlns:xlink="http://www.w3.org/1999/xlink" width="400" height="225.18210197710718" viewBox="0, 0, 400,225.18210197710718"><g id="svgg"><path id="path0" d="M205.079 79.523 C 204.574 80.083,204.570 82.148,205.072 83.331 C 205.537 84.428,205.675 84.193,205.299 82.944 C 204.862 81.490,204.908 80.292,205.426 79.633 C 205.938 78.982,205.650 78.891,205.079 79.523 M209.550 80.565 C 209.073 81.042,209.051 83.015,209.517 83.481 C 209.671 83.636,209.705 83.301,209.629 82.356 C 209.534 81.178,209.576 80.955,209.963 80.567 C 210.207 80.324,210.312 80.125,210.198 80.125 C 210.083 80.125,209.792 80.323,209.550 80.565 M211.375 81.130 C 210.997 81.547,210.913 82.948,211.235 83.455 C 211.372 83.671,211.419 83.426,211.388 82.656 C 211.349 81.709,211.415 81.487,211.834 81.147 C 212.157 80.885,212.222 80.749,212.022 80.749 C 211.855 80.749,211.564 80.920,211.375 81.130 M213.301 81.763 C 212.783 82.182,212.651 83.494,213.084 83.927 C 213.239 84.082,213.267 83.918,213.178 83.372 C 213.081 82.769,213.153 82.460,213.504 81.985 C 214.028 81.276,213.974 81.218,213.301 81.763 M184.633 82.943 C 184.314 83.643,184.352 86.047,184.698 87.097 C 185.047 88.158,185.082 87.580,184.779 85.744 C 184.607 84.702,184.604 84.069,184.768 83.422 C 185.032 82.385,184.977 82.190,184.633 82.943 M216.723 83.414 C 216.376 83.636,216.220 84.355,216.443 84.703 C 216.600 84.949,216.644 84.903,216.646 84.485 C 216.648 84.193,216.760 83.843,216.896 83.708 C 217.183 83.421,217.055 83.202,216.723 83.414 M218.191 84.574 C 217.960 85.176,218.192 85.569,218.451 85.013 C 218.591 84.712,218.612 84.446,218.501 84.378 C 218.397 84.314,218.257 84.402,218.191 84.574 M180.570 86.210 C 180.471 86.752,180.450 87.433,180.523 87.723 C 180.596 88.013,180.556 88.435,180.435 88.662 C 180.279 88.953,180.280 89.074,180.436 89.074 C 180.797 89.074,180.876 88.612,180.811 86.870 C 180.750 85.254,180.746 85.242,180.570 86.210 M179.111 86.629 C 178.941 87.263,178.985 89.472,179.180 90.114 C 179.272 90.417,179.329 89.700,179.315 88.398 C 179.290 85.945,179.292 85.956,179.111 86.629 M212.313 86.837 C 212.490 86.980,212.799 87.331,213.001 87.617 L 213.367 88.137 213.224 87.617 C 213.145 87.331,213.072 86.980,213.062 86.837 C 213.051 86.694,212.806 86.576,212.517 86.576 C 212.064 86.576,212.035 86.612,212.313 86.837 M215.809 87.240 C 216.042 87.491,216.233 87.787,216.233 87.899 C 216.233 88.011,216.284 88.051,216.347 87.988 C 216.612 87.724,216.174 86.785,215.786 86.785 C 215.396 86.785,215.397 86.798,215.809 87.240 M177.520 89.490 C 177.462 90.463,177.439 91.298,177.469 91.346 C 177.662 91.654,177.741 90.974,177.687 89.464 L 177.626 87.721 177.520 89.490 M172.351 94.798 C 172.275 98.398,174.496 103.007,175.717 101.785 C 175.878 101.625,175.753 101.561,175.280 101.561 C 174.225 101.561,172.802 98.215,172.534 95.109 L 172.382 93.340 172.351 94.798 M171.395 97.744 C 171.604 99.931,173.359 104.074,174.005 103.905 C 174.223 103.848,174.402 103.722,174.402 103.624 C 174.402 103.527,174.261 103.501,174.088 103.567 C 173.611 103.750,172.031 100.115,171.489 97.591 L 171.292 96.670 171.395 97.744 M170.302 98.023 C 170.302 98.652,170.341 98.910,170.388 98.595 C 170.436 98.280,170.436 97.765,170.388 97.451 C 170.341 97.136,170.302 97.393,170.302 98.023 M229.283 97.836 C 229.447 98.001,229.621 98.003,229.897 97.843 C 230.234 97.647,230.205 97.619,229.667 97.613 C 229.219 97.608,229.115 97.669,229.283 97.836 M169.469 99.688 C 169.469 100.317,169.508 100.575,169.556 100.260 C 169.604 99.945,169.604 99.430,169.556 99.116 C 169.508 98.801,169.469 99.058,169.469 99.688 M170.455 99.494 C 170.441 100.080,171.089 102.041,171.953 104.026 C 172.787 105.942,172.809 105.969,173.418 105.847 C 173.759 105.779,174.213 105.723,174.428 105.723 C 174.642 105.723,174.818 105.624,174.818 105.502 C 174.818 105.358,174.491 105.331,173.879 105.422 L 172.940 105.563 172.286 104.134 C 171.926 103.348,171.368 101.909,171.047 100.937 C 170.726 99.964,170.460 99.314,170.455 99.494 M230.177 99.480 C 230.177 99.594,230.370 99.688,230.605 99.688 C 230.841 99.688,230.976 99.594,230.905 99.480 C 230.835 99.365,230.642 99.272,230.477 99.272 C 230.312 99.272,230.177 99.365,230.177 99.480 M80.115 99.689 C 72.018 100.964,67.939 111.402,72.222 119.886 C 76.330 128.025,90.102 126.682,92.074 117.950 L 92.204 117.378 89.829 117.378 C 87.533 117.378,87.450 117.394,87.335 117.850 C 86.315 121.917,80.059 122.847,77.368 119.332 C 75.126 116.404,74.808 110.302,76.701 106.556 C 78.878 102.245,85.106 102.129,87.020 106.363 L 87.483 107.388 89.817 107.388 L 92.151 107.388 91.958 106.504 C 90.913 101.724,85.814 98.790,80.115 99.689 M169.630 101.159 C 169.559 102.721,171.960 107.804,172.768 107.804 C 173.094 107.804,173.361 107.700,173.361 107.572 C 173.361 107.439,173.148 107.380,172.861 107.435 C 172.291 107.544,170.733 104.636,170.012 102.115 C 169.810 101.410,169.638 100.979,169.630 101.159 M169.006 103.369 C 168.945 104.349,171.556 109.984,171.993 109.816 C 172.144 109.758,172.701 109.646,173.230 109.566 C 173.760 109.487,174.194 109.332,174.194 109.221 C 174.194 109.110,173.915 109.074,173.569 109.141 C 171.593 109.522,171.863 109.669,170.880 107.686 C 170.390 106.696,169.771 105.264,169.505 104.504 C 169.239 103.744,169.015 103.233,169.006 103.369 M103.683 106.377 C 102.604 106.792,101.368 107.807,100.679 108.845 L 100.334 109.365 100.323 108.507 C 100.317 108.035,100.254 107.356,100.182 106.998 L 100.052 106.348 97.893 106.348 L 95.734 106.348 95.734 115.609 L 95.734 124.870 98.023 124.870 L 100.312 124.870 100.312 119.941 C 100.312 112.195,101.342 110.302,105.553 110.302 L 106.348 110.302 106.348 108.117 L 106.348 105.931 105.567 105.942 C 105.138 105.948,104.290 106.144,103.683 106.377 M136.929 106.129 C 135.983 106.416,135.400 106.793,134.391 107.769 L 133.403 108.725 133.403 107.536 L 133.403 106.348 131.217 106.348 L 129.032 106.348 129.032 119.251 L 129.032 132.154 131.217 132.154 L 133.403 132.154 133.403 127.784 C 133.403 125.380,133.458 123.413,133.526 123.413 C 133.593 123.413,134.020 123.731,134.474 124.120 C 135.441 124.947,136.603 125.286,138.473 125.286 C 140.550 125.286,140.479 125.376,140.479 122.773 L 140.479 120.512 139.729 121.021 C 138.324 121.974,136.218 121.956,135.060 120.981 C 132.592 118.905,132.700 111.874,135.226 110.173 C 136.480 109.328,139.160 109.362,139.882 110.231 C 140.367 110.815,140.479 110.439,140.479 108.221 L 140.479 105.931 138.970 105.949 C 138.140 105.959,137.221 106.040,136.929 106.129 M108.515 106.689 C 110.483 111.817,115.097 125.642,114.990 126.086 C 114.571 127.807,113.186 128.824,111.259 128.824 L 110.094 128.824 110.094 130.584 L 110.094 132.343 110.849 132.485 C 112.046 132.710,114.654 132.408,115.639 131.931 C 117.836 130.868,118.394 129.666,122.588 116.961 L 126.057 106.452 123.875 106.392 C 122.675 106.360,121.654 106.372,121.607 106.419 C 121.492 106.534,119.205 114.478,118.309 117.873 C 117.920 119.347,117.570 120.585,117.530 120.624 C 117.491 120.664,117.062 119.270,116.577 117.528 C 116.092 115.786,115.154 112.581,114.492 110.406 L 113.289 106.452 110.834 106.393 C 108.592 106.339,108.391 106.365,108.515 106.689 M168.996 107.052 C 168.988 107.311,170.753 110.954,171.099 111.392 C 171.318 111.670,171.564 111.724,172.164 111.625 C 173.223 111.450,173.155 111.150,172.067 111.199 L 171.189 111.238 170.095 109.053 C 169.494 107.851,168.999 106.951,168.996 107.052 M185.328 108.221 C 184.648 108.907,183.932 109.469,183.735 109.469 C 183.355 109.469,183.030 110.159,183.245 110.508 C 183.494 110.911,184.172 110.731,184.298 110.229 C 184.366 109.959,184.976 109.190,185.655 108.518 C 186.825 107.360,187.094 106.972,186.726 106.972 C 186.637 106.972,186.007 107.534,185.328 108.221 M168.366 108.534 C 168.366 108.799,170.320 112.774,170.700 113.281 C 170.997 113.679,173.777 113.424,173.777 112.999 C 173.777 112.903,173.426 112.887,172.997 112.963 C 170.845 113.342,170.892 113.373,169.564 110.718 C 168.905 109.402,168.366 108.419,168.366 108.534 M187.987 110.564 C 187.097 111.426,186.181 112.166,185.952 112.207 C 185.505 112.289,185.260 113.127,185.588 113.454 C 185.860 113.727,186.472 113.442,186.472 113.041 C 186.472 112.856,187.240 111.932,188.178 110.989 C 190.332 108.824,190.165 108.453,187.987 110.564 M183.881 112.175 C 182.757 113.319,181.709 114.256,181.553 114.256 C 181.377 114.256,181.270 114.492,181.270 114.880 C 181.270 115.731,182.029 115.772,182.234 114.932 C 182.311 114.618,183.202 113.490,184.215 112.427 C 185.778 110.786,186.305 110.094,185.991 110.094 C 185.955 110.094,185.006 111.030,183.881 112.175 M190.838 112.925 C 189.868 113.910,188.763 114.851,188.384 115.015 C 187.857 115.243,187.710 115.422,187.760 115.773 C 187.849 116.403,188.838 116.429,188.927 115.803 C 188.961 115.567,189.874 114.492,190.956 113.414 C 192.039 112.336,192.924 111.383,192.924 111.294 C 192.924 110.908,192.494 111.245,190.838 112.925 M230.303 111.672 C 230.233 111.854,230.267 112.158,230.378 112.349 C 230.539 112.624,230.582 112.557,230.587 112.019 C 230.594 111.278,230.499 111.162,230.303 111.672 M186.572 114.568 C 185.344 115.884,184.174 116.961,183.972 116.961 C 183.549 116.961,183.306 117.436,183.488 117.909 C 183.680 118.409,184.483 118.193,184.564 117.619 C 184.604 117.340,185.602 116.132,186.906 114.786 C 188.155 113.496,189.178 112.381,189.178 112.308 C 189.178 111.897,188.578 112.417,186.572 114.568 M193.565 115.528 C 192.257 116.774,191.026 117.794,190.829 117.794 C 190.415 117.794,190.176 118.273,190.356 118.741 C 190.530 119.197,191.343 119.031,191.431 118.522 C 191.470 118.293,192.544 117.056,193.816 115.772 C 196.803 112.757,196.639 112.598,193.565 115.528 M231.640 113.567 C 231.637 113.704,231.729 113.874,231.845 113.946 C 231.962 114.018,232.003 114.164,231.937 114.270 C 231.871 114.377,231.916 114.464,232.038 114.464 C 232.343 114.464,232.313 114.200,231.953 113.723 C 231.784 113.501,231.644 113.431,231.640 113.567 M231.429 114.400 C 231.427 114.651,231.519 114.914,231.634 114.984 C 231.899 115.148,231.899 114.666,231.634 114.256 C 231.470 114.002,231.431 114.029,231.429 114.400 M189.584 116.886 C 188.273 118.211,186.890 119.429,186.511 119.593 C 185.984 119.821,185.837 120.001,185.887 120.352 C 185.991 121.085,186.793 121.074,187.050 120.336 C 187.165 120.005,188.360 118.593,189.705 117.198 C 191.050 115.803,192.109 114.620,192.059 114.570 C 192.008 114.519,190.894 115.562,189.584 116.886 M192.211 119.443 C 190.618 121.039,189.091 122.402,188.817 122.470 C 188.448 122.563,188.336 122.716,188.384 123.056 C 188.472 123.676,189.450 123.713,189.557 123.101 C 189.597 122.872,190.897 121.408,192.447 119.847 C 193.996 118.286,195.229 116.904,195.186 116.775 C 195.143 116.646,193.804 117.847,192.211 119.443 M168.678 117.378 C 168.856 117.721,169.048 118.002,169.105 118.002 C 169.163 118.002,169.064 117.721,168.887 117.378 C 168.709 117.034,168.517 116.753,168.460 116.753 C 168.402 116.753,168.501 117.034,168.678 117.378 M198.387 120.552 L 194.797 124.146 194.794 125.496 C 194.792 126.239,194.903 129.453,195.041 132.638 C 195.247 137.405,195.243 138.459,195.017 138.598 C 194.659 138.819,194.922 139.230,195.421 139.230 C 195.878 139.230,196.195 138.828,195.891 138.634 C 195.770 138.557,195.550 135.581,195.365 131.530 L 195.047 124.558 198.590 120.992 C 200.538 119.031,202.097 117.321,202.054 117.192 C 202.011 117.064,200.361 118.575,198.387 120.552 M199.711 121.933 L 196.614 125.035 196.837 130.098 C 196.992 133.625,196.993 135.242,196.841 135.424 C 196.534 135.795,196.788 136.316,197.276 136.316 C 197.825 136.316,198.017 135.957,197.683 135.554 C 197.488 135.320,197.356 133.800,197.221 130.235 L 197.031 125.243 199.998 122.271 C 201.629 120.636,202.929 119.193,202.886 119.065 C 202.843 118.936,201.415 120.227,199.711 121.933 M231.359 119.386 C 231.281 119.464,231.225 119.723,231.234 119.962 C 231.243 120.200,231.298 120.278,231.355 120.135 C 231.413 119.992,231.663 119.868,231.911 119.859 C 232.220 119.847,232.264 119.805,232.050 119.723 C 231.878 119.658,231.685 119.524,231.619 119.425 C 231.554 119.326,231.437 119.308,231.359 119.386 M201.551 122.767 L 198.627 125.806 198.769 129.865 C 198.861 132.469,198.837 134.015,198.704 134.180 C 198.402 134.555,198.670 135.068,199.168 135.068 C 199.696 135.068,199.928 134.545,199.583 134.130 C 199.415 133.928,199.275 132.487,199.173 129.919 L 199.019 126.015 201.799 123.151 C 203.328 121.575,204.579 120.147,204.579 119.977 C 204.579 119.581,204.906 119.279,201.551 122.767 M228.720 121.092 C 228.720 121.278,229.939 121.743,230.437 121.747 C 230.854 121.750,230.523 121.370,230.021 121.268 C 229.706 121.205,229.285 121.090,229.084 121.012 C 228.878 120.932,228.720 120.967,228.720 121.092 M202.829 124.161 L 200.560 126.515 200.699 128.948 C 200.797 130.670,200.763 131.589,200.581 132.091 C 200.306 132.852,200.564 133.259,201.246 133.140 C 201.613 133.076,201.798 132.365,201.496 132.178 C 201.381 132.107,201.219 130.856,201.135 129.398 L 200.984 126.747 203.094 124.557 C 204.254 123.352,205.203 122.228,205.203 122.057 C 205.203 121.662,205.441 121.452,202.829 124.161 M227.309 122.202 C 226.843 122.668,227.007 123.147,227.627 123.130 C 227.942 123.121,228.411 123.188,228.668 123.278 C 228.968 123.382,229.136 123.359,229.136 123.214 C 229.136 123.089,228.847 122.929,228.494 122.858 C 228.139 122.787,227.788 122.555,227.708 122.339 C 227.594 122.031,227.509 122.002,227.309 122.202 M214.360 124.573 C 213.845 125.315,213.191 126.038,212.906 126.178 C 212.295 126.480,212.109 127.107,212.578 127.287 C 212.979 127.441,213.526 127.026,213.533 126.561 C 213.536 126.375,213.958 125.668,214.470 124.990 C 215.227 123.986,215.634 123.165,215.349 123.214 C 215.320 123.219,214.875 123.830,214.360 124.573 M229.695 124.950 C 229.461 125.559,229.523 125.635,230.177 125.539 C 230.863 125.438,231.039 125.078,230.402 125.078 C 230.183 125.078,229.966 124.966,229.920 124.828 C 229.870 124.676,229.781 124.724,229.695 124.950 M170.968 125.691 C 170.739 125.783,170.458 125.810,170.343 125.750 C 170.229 125.690,170.242 125.757,170.372 125.899 C 170.560 126.102,170.734 126.089,171.205 125.833 C 171.830 125.495,171.680 125.405,170.968 125.691 M188.987 126.621 L 188.492 127.148 188.761 131.003 C 188.966 133.926,189.106 134.922,189.342 135.118 C 189.610 135.340,189.631 135.305,189.495 134.876 C 189.014 133.360,188.816 127.478,189.230 127.018 C 189.819 126.364,189.585 125.984,188.987 126.621 M228.638 127.488 C 228.417 128.065,228.501 128.210,228.907 127.956 C 229.125 127.821,229.255 127.586,229.197 127.434 C 229.055 127.062,228.792 127.087,228.638 127.488 M171.592 128.523 L 170.968 128.807 171.592 128.682 C 172.262 128.548,172.441 128.458,172.303 128.323 C 172.255 128.276,171.935 128.366,171.592 128.523 M227.956 129.071 C 227.417 129.766,227.408 129.913,227.914 129.757 C 228.567 129.556,228.581 129.536,228.359 129.139 C 228.205 128.863,228.128 128.850,227.956 129.071 M173.205 130.633 C 173.405 130.685,173.733 130.685,173.933 130.633 C 174.134 130.580,173.970 130.537,173.569 130.537 C 173.169 130.537,173.005 130.580,173.205 130.633 M226.837 130.923 C 226.564 131.435,226.657 131.590,227.129 131.408 C 227.492 131.269,227.612 130.489,227.271 130.489 C 227.160 130.489,226.965 130.684,226.837 130.923 M174.873 130.847 C 175.189 130.894,175.657 130.893,175.913 130.844 C 176.169 130.794,175.911 130.755,175.338 130.757 C 174.766 130.758,174.556 130.799,174.873 130.847 M177.315 131.124 C 177.830 131.216,178.533 131.286,178.876 131.280 C 179.337 131.272,179.255 131.226,178.564 131.103 C 178.049 131.011,177.347 130.941,177.003 130.947 C 176.543 130.955,176.625 131.001,177.315 131.124 M172.456 131.894 C 172.403 131.980,172.843 132.023,173.433 131.990 C 175.207 131.890,175.423 131.796,173.946 131.766 C 173.180 131.751,172.510 131.808,172.456 131.894 M175.702 132.089 C 175.903 132.142,176.230 132.142,176.431 132.089 C 176.631 132.037,176.467 131.994,176.067 131.994 C 175.666 131.994,175.502 132.037,175.702 132.089 M177.627 132.374 C 178.085 132.469,178.694 132.541,178.980 132.534 C 179.314 132.527,179.202 132.461,178.668 132.350 C 178.210 132.255,177.601 132.183,177.315 132.190 C 176.982 132.198,177.093 132.264,177.627 132.374 M222.379 133.256 C 222.290 133.461,222.275 133.687,222.347 133.759 C 222.558 133.970,222.729 133.673,222.631 133.263 C 222.545 132.899,222.534 132.899,222.379 133.256 M209.847 135.031 L 208.146 136.629 208.015 137.981 C 207.812 140.075,207.350 142.065,206.777 143.317 L 206.255 144.459 206.997 144.769 C 207.405 144.939,207.847 145.041,207.980 144.995 C 208.112 144.949,207.917 144.843,207.547 144.760 C 206.641 144.557,206.573 144.377,207.052 143.439 C 207.585 142.394,208.037 140.594,208.317 138.398 L 208.543 136.629 210.151 135.137 C 211.035 134.316,211.711 133.598,211.652 133.539 C 211.594 133.481,210.782 134.152,209.847 135.031 M211.617 135.334 L 210.020 136.837 209.785 138.555 C 209.519 140.504,209.083 142.102,208.513 143.221 L 208.123 143.987 208.862 144.230 C 209.269 144.365,209.648 144.427,209.706 144.369 C 209.764 144.312,209.524 144.201,209.172 144.124 C 208.820 144.047,208.533 143.956,208.533 143.922 C 208.533 143.888,208.763 143.341,209.044 142.705 C 209.493 141.688,209.893 140.037,210.295 137.531 C 210.390 136.942,210.714 136.492,211.725 135.546 C 212.881 134.465,213.475 133.807,213.280 133.825 C 213.244 133.828,212.496 134.507,211.617 135.334 M213.262 135.626 C 211.884 136.964,211.855 137.015,211.629 138.472 C 211.433 139.735,210.863 141.698,210.311 143.015 C 210.156 143.382,211.807 144.039,212.785 143.999 C 213.022 143.990,212.660 143.848,211.980 143.683 C 210.426 143.307,210.493 143.426,211.029 142.002 C 211.280 141.336,211.656 139.912,211.865 138.838 L 212.246 136.884 213.563 135.686 C 214.288 135.028,214.832 134.438,214.773 134.376 C 214.714 134.314,214.034 134.876,213.262 135.626 M215.000 135.681 C 213.696 137.011,213.654 137.089,213.284 138.846 C 213.076 139.836,212.715 141.090,212.483 141.633 C 212.251 142.175,212.086 142.638,212.118 142.663 C 212.290 142.795,214.200 143.182,214.608 143.167 C 214.872 143.157,214.552 143.034,213.895 142.893 C 212.377 142.567,212.397 142.596,212.881 141.367 C 213.106 140.795,213.442 139.589,213.627 138.686 C 213.948 137.121,214.023 136.985,215.243 135.750 C 215.946 135.037,216.480 134.424,216.430 134.386 C 216.379 134.348,215.735 134.931,215.000 135.681 M216.597 135.821 C 215.825 136.673,215.193 137.551,215.193 137.772 C 215.193 137.993,214.960 138.903,214.675 139.794 C 214.390 140.686,214.156 141.524,214.155 141.656 C 214.151 141.943,216.730 142.441,217.482 142.299 C 217.875 142.224,217.814 142.193,217.232 142.172 C 216.359 142.140,214.360 141.741,214.360 141.599 C 214.360 141.548,214.485 141.205,214.638 140.836 C 214.791 140.468,215.084 139.464,215.288 138.606 C 215.627 137.176,215.765 136.936,216.923 135.750 C 217.618 135.037,218.145 134.413,218.094 134.363 C 218.044 134.313,217.370 134.969,216.597 135.821 M217.869 136.936 C 217.533 137.218,217.453 137.399,217.615 137.509 C 217.789 137.626,217.754 137.987,217.485 138.854 C 217.080 140.161,217.154 140.290,218.279 140.252 C 218.801 140.234,218.793 140.221,218.147 140.035 C 217.641 139.889,217.486 139.743,217.561 139.481 C 217.617 139.286,217.778 138.727,217.918 138.239 C 218.059 137.751,218.299 137.248,218.452 137.121 C 218.769 136.858,218.821 136.524,218.545 136.524 C 218.444 136.524,218.139 136.710,217.869 136.936 M198.572 141.285 L 197.872 141.658 198.650 142.118 C 199.078 142.370,199.475 142.530,199.533 142.472 C 199.590 142.414,199.391 142.255,199.090 142.118 C 198.396 141.801,198.401 141.610,199.116 141.222 C 199.430 141.051,199.594 140.912,199.480 140.912 C 199.365 140.912,198.957 141.080,198.572 141.285 M211.290 144.784 C 211.491 144.837,211.818 144.837,212.019 144.784 C 212.219 144.732,212.055 144.689,211.655 144.689 C 211.254 144.689,211.090 144.732,211.290 144.784 " stroke="none" fill="#4490cc" fill-rule="evenodd"></path><path id="path1" d="M202.434 84.569 C 202.065 85.531,207.039 92.745,211.324 97.462 C 212.135 98.355,212.824 99.156,212.855 99.241 C 212.885 99.327,210.567 101.626,207.704 104.351 C 204.840 107.075,202.497 109.406,202.497 109.530 C 202.497 109.653,202.287 109.992,202.029 110.283 C 201.772 110.573,204.252 108.203,207.541 105.016 L 213.522 99.221 212.038 97.634 C 208.462 93.808,204.598 88.578,203.215 85.692 C 202.839 84.908,202.494 84.412,202.434 84.569 M198.888 85.423 C 198.543 86.321,203.019 92.919,207.801 98.559 L 208.629 99.536 207.704 100.288 C 206.317 101.416,201.305 105.733,200.000 106.924 C 197.906 108.834,199.047 108.239,201.363 106.212 C 202.616 105.115,204.813 103.229,206.243 102.020 C 207.674 100.811,208.925 99.753,209.024 99.670 C 209.122 99.586,208.371 98.549,207.355 97.366 C 204.003 93.460,201.463 89.895,199.894 86.896 C 199.395 85.943,198.942 85.280,198.888 85.423 M195.217 86.285 C 195.207 87.372,198.848 93.155,202.046 97.133 L 203.925 99.468 202.222 100.761 C 200.545 102.035,197.260 104.675,195.838 105.892 C 195.437 106.235,195.172 106.579,195.249 106.658 C 195.325 106.736,196.215 106.104,197.226 105.254 C 198.237 104.404,200.234 102.792,201.665 101.673 C 204.799 99.222,204.649 99.587,203.220 97.903 C 200.559 94.767,197.919 90.930,196.223 87.735 C 195.654 86.663,195.220 86.037,195.217 86.285 M191.472 87.184 C 191.462 88.209,194.842 93.879,197.561 97.399 C 198.136 98.143,198.689 98.859,198.791 98.991 C 198.918 99.155,198.417 99.635,197.216 100.502 C 194.583 102.402,191.581 104.895,191.500 105.248 C 191.460 105.419,192.163 104.956,193.061 104.218 C 193.958 103.480,195.787 102.059,197.125 101.059 L 199.556 99.241 197.867 97.019 C 195.623 94.067,194.124 91.743,192.674 88.970 C 191.887 87.465,191.475 86.853,191.472 87.184 M202.081 87.696 C 202.081 88.504,205.571 93.386,208.720 96.982 C 209.572 97.955,210.409 98.916,210.580 99.118 C 210.864 99.453,210.812 99.552,209.975 100.263 C 207.652 102.234,200.532 108.762,201.749 107.804 C 201.967 107.633,202.161 107.539,202.179 107.596 C 202.198 107.653,204.285 105.837,206.818 103.560 L 211.421 99.419 209.541 97.316 C 207.497 95.030,204.064 90.541,202.845 88.560 C 202.424 87.876,202.081 87.488,202.081 87.696 M220.402 87.908 C 220.387 88.325,223.421 91.779,223.803 91.779 C 223.912 91.779,223.398 91.147,222.659 90.375 C 221.921 89.602,221.112 88.689,220.863 88.345 C 220.613 88.002,220.406 87.805,220.402 87.908 M222.230 89.022 C 222.572 89.451,223.114 90.036,223.436 90.323 C 223.757 90.609,223.579 90.341,223.040 89.728 C 222.501 89.114,222.060 88.529,222.060 88.427 C 222.060 88.325,221.959 88.241,221.835 88.241 C 221.711 88.241,221.889 88.593,222.230 89.022 M223.036 88.640 C 223.093 88.859,223.356 89.241,223.619 89.488 C 224.346 90.171,224.523 89.590,223.813 88.849 C 223.138 88.144,222.889 88.077,223.036 88.640 M198.459 88.626 C 198.279 88.916,201.457 93.558,203.948 96.642 C 205.230 98.230,206.200 99.600,206.105 99.688 C 206.009 99.777,204.761 100.779,203.330 101.916 C 199.723 104.783,198.674 105.714,198.480 106.222 C 198.354 106.549,198.512 106.470,199.104 105.911 C 199.927 105.132,205.274 100.742,206.323 99.982 L 206.923 99.549 205.191 97.489 C 203.010 94.894,200.628 91.675,199.542 89.854 C 198.661 88.377,198.632 88.345,198.459 88.626 M224.142 89.497 C 224.142 89.793,224.042 89.748,223.601 89.252 C 223.207 88.808,223.208 88.807,223.673 89.051 C 223.931 89.186,224.142 89.387,224.142 89.497 M194.801 89.609 C 194.796 90.144,197.526 94.332,199.612 96.990 C 200.469 98.082,201.231 99.074,201.305 99.195 C 201.381 99.318,200.823 99.859,200.044 100.417 C 197.823 102.011,194.797 104.490,194.797 104.717 C 194.797 104.832,195.021 104.754,195.296 104.544 C 195.570 104.334,197.138 103.141,198.781 101.893 C 200.425 100.645,201.834 99.568,201.914 99.500 C 201.994 99.431,201.312 98.439,200.397 97.294 C 198.952 95.485,196.712 92.267,195.254 89.906 C 194.892 89.321,194.803 89.263,194.801 89.609 M186.123 89.723 C 186.483 89.933,186.484 89.964,186.143 90.341 C 185.756 90.769,186.017 90.903,186.431 90.489 C 186.858 90.062,186.732 89.489,186.212 89.496 C 185.782 89.502,185.775 89.521,186.123 89.723 M191.054 90.616 C 191.049 91.245,193.432 95.066,195.592 97.893 C 196.400 98.950,196.480 99.141,196.186 99.306 C 195.880 99.477,192.018 102.364,191.329 102.937 C 191.176 103.064,191.051 103.283,191.051 103.424 C 191.051 103.565,191.496 103.310,192.040 102.856 C 192.583 102.403,193.935 101.377,195.043 100.576 L 197.058 99.120 195.406 96.870 C 194.498 95.633,193.320 93.911,192.789 93.044 C 192.258 92.177,191.651 91.186,191.441 90.843 C 191.141 90.354,191.057 90.305,191.054 90.616 M179.979 92.007 C 180.028 92.337,180.151 92.556,180.252 92.493 C 180.534 92.319,180.472 91.629,180.164 91.511 C 179.967 91.435,179.916 91.573,179.979 92.007 M227.278 91.948 C 227.270 92.103,227.151 92.158,227.003 92.075 C 226.860 91.994,226.905 92.100,227.102 92.310 C 227.531 92.765,227.691 92.667,227.460 92.092 C 227.368 91.863,227.286 91.798,227.278 91.948 M221.937 94.283 C 223.633 95.872,226.678 98.158,226.508 97.716 C 226.443 97.546,226.049 97.197,225.633 96.940 C 225.217 96.682,224.078 95.814,223.102 95.010 C 220.557 92.914,220.308 92.758,221.937 94.283 M222.477 93.317 C 222.477 93.431,225.172 95.601,225.858 96.040 C 226.173 96.241,226.431 96.322,226.431 96.219 C 226.431 96.116,226.145 95.862,225.795 95.656 C 225.445 95.449,224.606 94.820,223.931 94.258 C 222.797 93.314,222.477 93.107,222.477 93.317 M220.997 95.020 C 222.662 96.593,225.167 98.610,226.028 99.071 C 226.853 99.512,226.385 99.046,224.903 97.950 C 224.063 97.329,222.635 96.177,221.730 95.389 C 219.322 93.296,218.999 93.133,220.997 95.020 M184.617 94.036 C 184.504 94.247,183.869 94.827,183.205 95.325 C 181.551 96.565,179.813 98.069,179.813 98.260 C 179.813 98.347,180.859 97.580,182.138 96.556 C 183.416 95.531,184.627 94.693,184.828 94.693 C 185.217 94.693,185.848 94.169,185.848 93.846 C 185.848 93.489,184.825 93.647,184.617 94.036 M218.660 94.381 C 219.821 95.873,223.667 99.224,225.378 100.234 C 225.720 100.436,226.039 100.747,226.087 100.925 C 226.160 101.196,226.178 101.192,226.199 100.899 C 226.213 100.686,225.460 99.976,224.270 99.082 C 223.196 98.274,221.348 96.699,220.164 95.581 C 218.980 94.463,218.303 93.923,218.660 94.381 M217.482 95.068 C 217.482 95.395,221.111 98.753,223.173 100.333 C 224.221 101.136,225.250 101.934,225.460 102.106 C 225.779 102.368,225.830 102.370,225.772 102.123 C 225.734 101.960,224.766 101.120,223.621 100.257 C 222.477 99.394,220.627 97.828,219.511 96.777 C 218.395 95.725,217.482 94.957,217.482 95.068 M186.102 96.330 C 186.019 96.544,185.203 97.312,184.287 98.036 C 182.226 99.667,180.591 101.198,179.745 102.289 C 179.307 102.855,179.631 102.620,180.757 101.557 C 182.965 99.472,186.086 96.976,186.310 97.115 C 186.584 97.284,187.097 96.774,187.097 96.332 C 187.097 95.813,186.301 95.811,186.102 96.330 M179.628 100.123 C 176.864 103.013,176.754 103.348,179.387 100.853 C 180.402 99.891,181.498 98.977,181.823 98.822 C 182.434 98.530,182.787 97.590,182.273 97.625 C 182.121 97.636,180.931 98.759,179.628 100.123 M187.788 98.832 C 187.731 99.048,186.936 99.814,186.022 100.535 C 183.924 102.187,180.021 105.956,180.021 106.330 C 180.021 106.485,181.074 105.591,182.362 104.345 C 185.200 101.597,187.419 99.793,188.189 99.609 C 188.623 99.505,188.762 99.347,188.762 98.955 C 188.762 98.318,187.949 98.215,187.788 98.832 M247.659 99.663 L 247.659 100.887 246.670 101.134 C 240.790 102.600,239.784 110.143,245.094 112.950 C 245.761 113.302,247.430 113.983,248.803 114.464 C 252.828 115.873,253.695 116.604,253.693 118.590 C 253.691 122.723,247.209 123.161,245.750 119.126 L 245.494 118.418 243.265 118.418 L 241.037 118.418 241.298 119.542 C 241.934 122.277,243.881 124.104,246.982 124.874 L 247.867 125.094 247.867 126.543 L 247.867 127.992 249.740 127.992 L 251.613 127.992 251.613 126.539 C 251.613 125.123,251.628 125.083,252.185 124.959 C 256.559 123.993,258.522 121.550,258.213 117.459 C 257.957 114.078,256.115 112.334,251.081 110.708 C 247.183 109.448,246.201 108.701,246.203 106.996 C 246.205 103.579,251.239 102.818,252.832 105.994 L 253.322 106.972 255.485 106.972 C 257.887 106.972,257.855 106.996,257.442 105.508 C 256.874 103.467,255.337 102.024,252.885 101.231 L 251.509 100.786 251.446 99.612 L 251.384 98.439 249.521 98.439 L 247.659 98.439 247.659 99.663 M262.227 111.655 L 262.227 124.870 264.396 124.870 L 266.564 124.870 266.637 118.783 C 266.732 110.765,267.213 109.618,270.477 109.618 C 273.459 109.618,273.760 110.409,273.845 118.470 L 273.913 124.870 276.095 124.870 L 278.276 124.870 278.212 117.638 L 278.148 110.406 277.610 109.260 C 275.844 105.496,270.588 104.666,267.482 107.662 L 266.597 108.515 266.597 103.477 L 266.597 98.439 264.412 98.439 L 262.227 98.439 262.227 111.655 M183.184 100.354 C 183.047 100.491,182.934 100.692,182.934 100.801 C 182.934 100.909,181.764 102.199,180.333 103.666 C 178.902 105.134,177.732 106.434,177.732 106.555 C 177.732 106.676,178.932 105.555,180.400 104.064 C 182.148 102.288,183.220 101.353,183.508 101.353 C 183.764 101.353,184.002 101.180,184.078 100.938 C 184.313 100.199,183.724 99.814,183.184 100.354 M189.495 101.546 C 189.425 101.767,188.552 102.631,187.556 103.466 C 185.456 105.225,180.404 110.288,180.536 110.501 C 180.585 110.581,181.918 109.373,183.497 107.817 C 186.580 104.778,189.226 102.523,190.096 102.192 C 190.819 101.917,190.844 101.145,190.128 101.145 C 189.811 101.145,189.575 101.295,189.495 101.546 M214.645 102.754 C 214.202 103.297,212.976 104.744,211.921 105.972 C 210.865 107.199,210.069 108.245,210.152 108.296 C 210.299 108.387,211.752 106.769,214.222 103.766 C 214.890 102.954,215.470 102.256,215.509 102.216 C 215.549 102.176,216.361 102.833,217.312 103.677 C 218.264 104.520,219.582 105.630,220.241 106.142 C 220.901 106.655,221.494 107.243,221.560 107.451 C 221.716 107.943,222.146 107.793,222.231 107.216 C 222.274 106.923,222.187 106.764,221.984 106.764 C 221.641 106.764,219.444 105.069,217.178 103.056 C 215.445 101.517,215.638 101.540,214.645 102.754 M184.946 102.948 C 184.870 103.025,184.807 103.211,184.807 103.362 C 184.807 103.514,184.046 104.364,183.116 105.253 C 181.139 107.141,178.148 110.562,178.148 110.935 C 178.148 111.077,178.541 110.735,179.022 110.175 C 180.851 108.046,184.905 104.058,185.240 104.058 C 185.704 104.058,186.133 103.518,185.982 103.124 C 185.860 102.806,185.201 102.694,184.946 102.948 M222.737 103.980 C 222.796 104.309,222.962 105.284,223.107 106.147 L 223.370 107.716 222.381 110.205 C 221.837 111.575,220.757 113.937,219.981 115.455 C 219.205 116.973,218.635 118.255,218.715 118.305 C 218.931 118.438,221.555 113.071,222.625 110.307 C 223.535 107.956,223.550 107.877,223.385 106.348 C 223.292 105.489,223.214 104.514,223.211 104.181 C 223.208 103.849,223.076 103.532,222.917 103.479 C 222.702 103.405,222.657 103.531,222.737 103.980 M212.695 107.399 C 211.150 109.346,209.850 111.043,209.807 111.170 C 209.616 111.726,210.351 110.913,212.622 108.054 C 213.959 106.372,215.173 104.863,215.319 104.702 C 215.618 104.373,219.147 107.157,219.147 107.723 C 219.147 108.166,219.726 108.067,219.875 107.598 C 220.038 107.084,219.822 106.700,219.450 106.842 C 219.296 106.902,218.380 106.258,217.399 105.400 C 216.424 104.547,215.599 103.852,215.565 103.854 C 215.532 103.857,214.240 105.452,212.695 107.399 M226.895 104.475 C 226.895 104.875,226.938 105.039,226.990 104.839 C 227.043 104.638,227.043 104.311,226.990 104.110 C 226.938 103.910,226.895 104.074,226.895 104.475 M228.768 104.891 C 228.768 105.291,228.811 105.455,228.864 105.255 C 228.916 105.055,228.916 104.727,228.864 104.527 C 228.811 104.326,228.768 104.490,228.768 104.891 M233.947 104.614 C 233.934 104.747,233.862 105.028,233.788 105.238 C 233.684 105.534,233.711 105.566,233.912 105.381 C 234.054 105.250,234.125 104.969,234.071 104.757 C 234.016 104.544,233.960 104.480,233.947 104.614 M227.520 105.515 C 227.520 105.916,227.562 106.080,227.615 105.879 C 227.667 105.679,227.667 105.351,227.615 105.151 C 227.562 104.951,227.520 105.114,227.520 105.515 M231.578 105.255 C 231.633 105.398,231.902 105.515,232.176 105.515 C 232.450 105.515,232.674 105.398,232.674 105.255 C 232.674 105.107,232.416 104.995,232.076 104.995 C 231.684 104.995,231.513 105.084,231.578 105.255 M228.152 106.556 C 228.152 107.071,228.193 107.281,228.243 107.024 C 228.292 106.766,228.292 106.345,228.243 106.087 C 228.193 105.830,228.152 106.041,228.152 106.556 M286.881 106.341 C 284.727 107.045,282.839 109.207,282.832 110.978 L 282.830 111.550 284.913 111.550 L 286.996 111.550 287.332 110.710 C 288.557 107.649,293.444 108.957,293.444 112.345 L 293.444 113.362 290.583 113.488 C 284.428 113.759,281.946 115.517,281.933 119.612 C 281.917 124.858,288.917 127.449,292.872 123.660 L 293.652 122.912 293.652 123.562 C 293.652 124.832,293.717 124.870,295.912 124.870 L 297.919 124.870 297.856 117.846 C 297.782 109.685,297.696 109.131,296.281 107.717 C 294.619 106.055,289.881 105.361,286.881 106.341 M311.072 106.231 C 309.780 106.693,308.654 107.555,308.001 108.584 C 307.390 109.548,307.388 109.549,307.388 108.915 C 307.388 108.565,307.329 107.844,307.256 107.313 L 307.123 106.348 304.967 106.348 L 302.810 106.348 302.810 115.609 L 302.810 124.870 305.099 124.870 L 307.388 124.870 307.388 119.809 C 307.388 112.144,308.404 110.302,312.629 110.302 L 313.424 110.302 313.424 108.117 L 313.424 105.931 312.643 105.940 C 312.214 105.945,311.507 106.076,311.072 106.231 M321.273 106.158 C 313.357 108.022,312.931 122.466,320.721 124.890 C 325.403 126.347,329.871 124.442,331.626 120.239 L 331.951 119.459 329.711 119.467 L 327.471 119.475 326.891 120.313 C 324.795 123.342,320.280 121.586,319.742 117.534 L 319.610 116.545 325.912 116.545 L 332.214 116.545 332.095 114.412 C 331.739 108.022,327.402 104.715,321.273 106.158 M213.371 109.039 C 212.198 110.624,211.238 112.031,211.238 112.165 C 211.238 112.298,211.130 112.341,210.998 112.259 C 210.843 112.163,210.815 112.202,210.917 112.369 C 211.114 112.687,210.981 112.836,213.429 109.573 C 214.545 108.085,215.489 106.832,215.526 106.789 C 215.628 106.669,219.535 109.888,219.989 110.466 C 220.438 111.036,221.020 110.961,221.020 110.334 C 221.020 110.070,220.829 109.897,220.447 109.815 C 220.133 109.748,218.916 108.893,217.744 107.916 C 216.572 106.939,215.589 106.143,215.559 106.148 C 215.529 106.153,214.545 107.454,213.371 109.039 M228.782 107.388 C 228.782 108.018,228.821 108.275,228.869 107.960 C 228.917 107.646,228.917 107.131,228.869 106.816 C 228.821 106.501,228.782 106.759,228.782 107.388 M225.310 108.949 C 224.533 112.926,221.446 120.039,218.593 124.424 C 217.971 125.381,217.495 126.261,217.535 126.381 C 217.743 127.007,221.653 119.964,223.195 116.184 C 224.237 113.631,225.655 108.953,225.543 108.439 C 225.504 108.262,225.399 108.491,225.310 108.949 M215.199 109.147 C 214.955 109.542,213.736 111.226,212.490 112.889 C 211.245 114.553,210.298 115.958,210.385 116.012 C 210.537 116.106,213.866 111.806,215.082 109.945 L 215.655 109.067 216.381 109.621 C 216.780 109.925,217.189 110.390,217.289 110.654 C 217.500 111.210,217.742 111.261,218.104 110.825 C 218.427 110.435,218.231 109.886,217.770 109.886 C 217.578 109.886,217.021 109.558,216.532 109.157 L 215.643 108.429 215.199 109.147 M325.637 109.606 C 326.622 110.073,327.406 111.312,327.529 112.596 L 327.628 113.632 323.752 113.632 L 319.875 113.632 319.877 113.059 C 319.887 110.282,323.057 108.381,325.637 109.606 M225.570 111.809 C 224.488 116.024,222.084 121.565,219.701 125.338 C 219.068 126.340,218.632 127.159,218.732 127.159 C 219.278 127.159,222.491 121.184,223.997 117.369 C 224.931 115.002,226.314 110.264,226.184 109.875 C 226.148 109.765,225.871 110.635,225.570 111.809 M233.840 110.208 C 233.624 110.366,233.344 110.532,233.217 110.578 C 233.090 110.624,233.043 110.722,233.111 110.797 C 233.322 111.027,234.537 110.413,234.378 110.156 C 234.273 109.986,234.124 110.001,233.840 110.208 M226.039 114.002 C 224.982 117.866,223.127 122.183,220.942 125.858 C 220.313 126.917,219.864 127.784,219.945 127.784 C 220.984 127.784,227.064 113.724,226.603 112.385 C 226.565 112.277,226.312 113.004,226.039 114.002 M234.131 113.505 C 234.131 113.664,233.897 113.853,233.611 113.925 C 232.889 114.106,232.958 114.409,233.714 114.382 C 234.255 114.363,234.767 113.215,234.235 113.215 C 234.178 113.215,234.131 113.346,234.131 113.505 M226.280 116.758 C 225.439 119.594,223.744 123.526,222.223 126.171 C 221.581 127.287,221.124 128.200,221.209 128.200 C 222.016 128.200,227.294 115.981,227.013 114.761 C 226.979 114.614,226.649 115.513,226.280 116.758 M227.603 115.609 C 227.215 117.639,225.410 122.489,224.005 125.275 C 222.320 128.618,222.100 129.319,223.562 126.688 C 225.427 123.332,228.065 116.172,227.832 115.099 C 227.793 114.921,227.690 115.151,227.603 115.609 M173.733 116.574 C 173.689 116.705,173.111 116.885,172.448 116.975 C 171.302 117.131,170.896 117.276,171.089 117.460 C 171.137 117.506,171.736 117.454,172.421 117.346 C 173.274 117.211,173.689 117.218,173.739 117.367 C 173.906 117.868,174.402 117.565,174.402 116.961 C 174.402 116.346,173.905 116.059,173.733 116.574 M293.443 117.430 C 293.439 121.042,290.241 123.262,287.603 121.485 C 284.533 119.416,286.734 116.366,291.311 116.346 L 293.444 116.337 293.443 117.430 M178.273 118.176 C 178.206 118.284,177.120 118.440,175.860 118.522 C 172.979 118.711,172.855 118.961,175.688 118.872 C 177.105 118.827,177.970 118.892,178.294 119.065 C 178.919 119.400,179.410 119.025,179.065 118.477 C 178.796 118.051,178.435 117.914,178.273 118.176 M176.067 120.083 C 176.067 120.198,175.520 120.291,174.844 120.291 C 173.512 120.291,172.321 120.476,172.320 120.682 C 172.320 120.753,173.168 120.781,174.206 120.745 C 175.446 120.700,176.193 120.762,176.389 120.924 C 176.737 121.213,177.028 120.720,176.824 120.187 C 176.691 119.841,176.067 119.755,176.067 120.083 M233.299 121.037 C 233.012 121.196,232.685 121.361,232.570 121.404 C 232.456 121.448,232.420 121.546,232.491 121.623 C 232.671 121.819,233.668 121.337,233.801 120.992 C 233.861 120.835,233.889 120.717,233.864 120.728 C 233.839 120.739,233.585 120.878,233.299 121.037 M180.853 121.959 C 180.853 122.099,179.862 122.123,177.940 122.031 C 176.001 121.939,175.026 121.963,175.026 122.105 C 175.026 122.235,176.103 122.355,177.784 122.413 C 179.642 122.477,180.692 122.603,181.004 122.799 C 181.579 123.161,182.002 122.833,181.796 122.185 C 181.658 121.748,180.853 121.555,180.853 121.959 M232.466 122.965 C 231.347 123.364,231.322 123.379,231.481 123.538 C 231.663 123.720,233.015 123.235,233.307 122.882 C 233.445 122.716,233.523 122.592,233.480 122.606 C 233.438 122.619,232.981 122.781,232.466 122.965 M179.188 123.611 C 179.188 123.732,178.219 123.760,176.691 123.683 C 174.872 123.592,174.194 123.623,174.194 123.798 C 174.194 123.963,174.860 124.037,176.348 124.037 C 177.533 124.037,178.804 124.143,179.173 124.271 C 179.926 124.534,180.323 124.317,180.109 123.760 C 179.970 123.396,179.188 123.269,179.188 123.611 M190.843 124.620 C 190.843 125.229,190.924 125.264,191.950 125.105 C 192.418 125.032,191.953 124.138,191.415 124.076 C 190.906 124.017,190.843 124.077,190.843 124.620 M177.107 125.470 C 177.107 125.611,177.532 125.702,178.188 125.702 C 179.970 125.702,183.975 126.166,183.975 126.372 C 183.975 126.477,184.186 126.534,184.443 126.497 C 184.738 126.455,184.912 126.287,184.912 126.042 C 184.912 125.685,184.686 125.648,182.164 125.590 C 180.653 125.555,178.897 125.462,178.262 125.382 C 177.465 125.283,177.107 125.310,177.107 125.470 M176.067 126.894 C 176.067 126.991,177.347 127.181,178.913 127.318 C 180.478 127.454,181.855 127.661,181.972 127.779 C 182.338 128.144,182.726 128.013,182.726 127.523 C 182.726 127.067,182.667 127.055,180.350 127.029 C 179.043 127.015,177.544 126.939,177.020 126.860 C 176.496 126.782,176.067 126.797,176.067 126.894 M231.061 127.211 C 230.495 127.392,230.111 127.784,230.499 127.784 C 230.692 127.784,231.842 127.155,231.842 127.050 C 231.842 126.996,231.818 126.961,231.790 126.972 C 231.761 126.984,231.433 127.091,231.061 127.211 M177.211 128.517 C 177.326 128.559,178.730 128.746,180.333 128.932 C 181.935 129.119,183.336 129.358,183.444 129.464 C 183.810 129.820,184.391 129.679,184.391 129.234 C 184.391 128.763,183.846 128.454,183.545 128.754 C 183.426 128.874,182.414 128.849,180.906 128.690 C 178.550 128.442,176.778 128.359,177.211 128.517 M229.991 129.050 C 229.716 129.160,229.541 129.299,229.602 129.359 C 229.767 129.524,230.801 129.223,230.801 129.010 C 230.801 128.783,230.637 128.791,229.991 129.050 M229.032 130.822 L 228.408 131.116 229.032 130.994 C 229.683 130.866,229.890 130.756,229.743 130.612 C 229.696 130.566,229.376 130.660,229.032 130.822 M227.488 132.955 C 227.148 133.590,227.219 133.767,227.597 133.227 C 227.780 132.966,227.881 132.703,227.822 132.643 C 227.762 132.583,227.612 132.724,227.488 132.955 M223.742 133.527 C 223.875 133.687,224.155 133.819,224.363 133.819 C 224.982 133.819,225.005 134.134,224.485 135.520 C 223.708 137.594,223.676 137.714,224.105 136.941 C 224.614 136.023,225.297 133.865,225.132 133.699 C 224.826 133.393,223.494 133.228,223.742 133.527 M190.739 136.108 C 191.252 137.040,191.750 137.565,192.121 137.565 C 192.673 137.565,192.554 136.870,191.985 136.766 C 191.758 136.725,191.345 136.490,191.069 136.244 C 190.793 135.997,190.645 135.937,190.739 136.108 M222.862 136.576 C 222.686 136.720,222.083 137.352,221.521 137.981 L 220.500 139.126 221.748 137.987 C 222.878 136.956,223.455 136.316,223.255 136.316 C 223.214 136.316,223.037 136.433,222.862 136.576 M179.745 137.078 C 179.558 137.265,180.005 137.773,180.358 137.773 C 180.754 137.773,180.720 137.222,180.316 137.067 C 179.909 136.911,179.912 136.911,179.745 137.078 M202.331 138.647 C 202.194 138.785,202.081 139.016,202.081 139.161 C 202.081 139.306,201.824 139.565,201.509 139.735 C 201.172 139.918,201.070 140.049,201.261 140.054 C 201.439 140.059,201.767 139.925,201.989 139.757 C 202.212 139.589,202.627 139.447,202.914 139.442 C 203.630 139.428,204.040 139.129,203.887 138.731 C 203.736 138.336,202.697 138.281,202.331 138.647 M190.219 138.689 C 190.219 138.843,193.846 141.465,195.838 142.751 C 197.792 144.013,201.073 145.713,202.081 145.987 C 202.367 146.065,201.478 145.572,200.104 144.892 C 197.481 143.595,194.732 141.865,192.052 139.824 C 190.562 138.690,190.219 138.477,190.219 138.689 M203.349 138.918 C 203.348 139.032,203.155 139.156,202.922 139.192 C 202.503 139.258,202.359 139.022,202.643 138.737 C 202.846 138.535,203.352 138.664,203.349 138.918 M189.386 139.511 C 189.386 139.828,195.864 144.120,197.900 145.152 C 199.563 145.994,199.427 145.760,197.711 144.826 C 195.841 143.808,192.440 141.602,190.807 140.346 C 189.724 139.513,189.386 139.315,189.386 139.511 M189.239 140.618 C 190.126 141.649,197.296 146.109,198.040 146.094 C 198.145 146.092,197.373 145.634,196.324 145.078 C 194.467 144.091,191.376 142.106,189.698 140.822 C 189.210 140.448,189.020 140.364,189.239 140.618 M183.036 141.120 C 183.052 141.335,183.144 141.583,183.241 141.671 C 183.338 141.759,183.354 141.721,183.277 141.587 C 183.200 141.451,183.280 141.313,183.459 141.275 C 183.727 141.218,183.716 141.167,183.394 140.968 C 183.068 140.766,183.012 140.790,183.036 141.120 M189.098 141.765 C 190.020 142.461,190.199 142.517,189.498 141.889 C 189.150 141.577,188.783 141.320,188.682 141.317 C 188.580 141.314,188.768 141.515,189.098 141.765 M191.259 143.228 C 191.431 143.397,191.946 143.747,192.404 144.005 C 193.105 144.400,193.157 144.409,192.730 144.059 C 192.035 143.491,190.844 142.817,191.259 143.228 M201.318 143.288 C 201.318 143.466,201.403 143.584,201.507 143.549 C 201.611 143.514,201.696 143.397,201.696 143.288 C 201.696 143.180,201.611 143.062,201.507 143.028 C 201.403 142.993,201.318 143.110,201.318 143.288 M193.340 144.526 C 193.340 144.583,193.621 144.776,193.965 144.953 C 194.308 145.131,194.589 145.229,194.589 145.172 C 194.589 145.115,194.308 144.923,193.965 144.745 C 193.621 144.567,193.340 144.469,193.340 144.526 M199.792 145.976 C 200.078 146.129,200.546 146.312,200.832 146.384 C 201.119 146.455,200.978 146.333,200.520 146.113 C 199.578 145.660,198.995 145.550,199.792 145.976 M168.878 157.935 C 165.420 159.506,167.439 164.384,171.124 163.361 L 171.904 163.144 171.904 161.801 L 171.904 160.458 170.968 160.458 C 170.274 160.458,170.031 160.539,170.031 160.770 C 170.031 160.979,170.241 161.082,170.668 161.082 C 171.287 161.082,171.302 161.105,171.240 161.967 L 171.176 162.851 170.228 162.913 C 168.527 163.024,167.471 161.612,167.943 159.858 C 168.286 158.587,169.030 158.108,170.499 158.214 C 171.758 158.304,172.062 158.089,171.162 157.747 C 170.395 157.455,169.833 157.502,168.878 157.935 M176.067 160.562 L 176.067 163.580 177.627 163.580 C 178.876 163.580,179.188 163.517,179.188 163.267 C 179.188 163.025,178.911 162.955,177.940 162.955 L 176.691 162.955 176.691 161.915 L 176.691 160.874 177.732 160.874 C 178.518 160.874,178.772 160.798,178.772 160.562 C 178.772 160.326,178.518 160.250,177.732 160.250 L 176.691 160.250 176.691 159.209 L 176.691 158.169 177.836 158.169 C 178.714 158.169,178.980 158.096,178.980 157.856 C 178.980 157.609,178.680 157.544,177.523 157.544 L 176.067 157.544 176.067 160.562 M182.310 157.856 C 182.310 158.082,182.541 158.169,183.143 158.169 L 183.975 158.169 183.975 160.874 C 183.975 163.140,184.026 163.580,184.287 163.580 C 184.549 163.580,184.599 163.140,184.599 160.874 L 184.599 158.169 185.536 158.169 C 186.230 158.169,186.472 158.088,186.472 157.856 C 186.472 157.600,186.102 157.544,184.391 157.544 C 182.680 157.544,182.310 157.600,182.310 157.856 M195.005 160.562 C 195.005 163.106,195.054 163.580,195.317 163.580 C 195.578 163.580,195.634 163.124,195.654 160.822 C 195.667 159.305,195.719 158.221,195.770 158.412 C 196.023 159.369,197.878 163.470,198.042 163.437 C 198.146 163.415,198.719 162.245,199.315 160.835 L 200.398 158.273 200.407 160.926 C 200.415 163.142,200.468 163.580,200.728 163.580 C 200.992 163.580,201.041 163.104,201.041 160.547 C 201.041 156.527,200.663 156.397,199.147 159.898 C 198.611 161.135,198.131 162.188,198.080 162.239 C 198.030 162.290,197.528 161.255,196.965 159.939 C 196.094 157.903,195.872 157.547,195.473 157.546 C 195.009 157.544,195.005 157.571,195.005 160.562 M206.746 157.830 C 204.210 158.973,204.604 163.023,207.295 163.477 C 209.517 163.853,211.177 161.575,210.319 159.328 C 209.763 157.874,208.150 157.198,206.746 157.830 M214.360 160.547 C 214.360 163.104,214.409 163.580,214.672 163.580 C 214.933 163.580,214.985 163.156,214.988 161.030 L 214.991 158.481 216.669 161.030 C 218.995 164.563,219.147 164.534,219.147 160.562 C 219.147 158.046,219.096 157.544,218.841 157.544 C 218.592 157.544,218.524 158.015,218.477 160.082 L 218.418 162.620 216.847 160.134 C 214.570 156.533,214.360 156.568,214.360 160.547 M223.309 160.562 L 223.309 163.580 224.870 163.580 C 226.119 163.580,226.431 163.517,226.431 163.267 C 226.431 163.025,226.153 162.955,225.182 162.955 L 223.933 162.955 223.933 161.915 L 223.933 160.874 224.974 160.874 C 225.760 160.874,226.015 160.798,226.015 160.562 C 226.015 160.326,225.760 160.250,224.974 160.250 L 223.933 160.250 223.933 159.209 L 223.933 158.169 225.078 158.169 C 225.957 158.169,226.223 158.096,226.223 157.856 C 226.223 157.609,225.922 157.544,224.766 157.544 L 223.309 157.544 223.309 160.562 M229.761 157.652 C 229.761 157.712,230.182 158.600,230.697 159.625 C 231.435 161.095,231.634 161.712,231.634 162.535 C 231.634 163.325,231.710 163.580,231.946 163.580 C 232.187 163.580,232.258 163.310,232.258 162.404 C 232.258 161.404,232.398 160.972,233.195 159.510 C 234.241 157.591,234.256 157.544,233.822 157.544 C 233.647 157.544,233.192 158.179,232.778 159.001 C 232.375 159.802,232.000 160.458,231.946 160.458 C 231.892 160.458,231.517 159.802,231.113 159.001 C 230.522 157.827,229.761 157.068,229.761 157.652 M209.244 158.690 C 209.829 159.321,210.032 160.390,209.757 161.387 C 209.157 163.560,206.580 163.538,205.818 161.353 C 205.059 159.176,207.753 157.081,209.244 158.690 " stroke="none" fill="#16b0da" fill-rule="evenodd"></path><path id="path2" d="M217.776 83.297 C 219.624 84.730,220.118 85.045,220.118 84.789 C 220.118 84.637,220.051 84.555,219.968 84.606 C 219.886 84.657,219.704 84.561,219.565 84.393 C 219.425 84.225,218.829 83.804,218.240 83.457 C 217.579 83.068,217.402 83.006,217.776 83.297 M220.610 86.718 C 220.614 86.812,221.053 87.154,221.586 87.477 C 222.119 87.801,222.432 87.918,222.282 87.737 C 222.132 87.557,222.103 87.409,222.218 87.409 C 222.332 87.409,222.580 87.620,222.769 87.877 C 223.048 88.256,223.076 88.266,222.918 87.927 C 222.652 87.356,221.776 86.552,221.970 87.056 C 222.148 87.522,221.942 87.501,221.208 86.979 C 220.876 86.742,220.606 86.625,220.610 86.718 M224.260 88.010 C 224.190 88.123,224.269 88.292,224.435 88.385 C 224.601 88.478,224.743 88.624,224.751 88.710 C 224.759 88.796,224.836 88.872,224.922 88.881 C 225.008 88.889,225.235 89.037,225.426 89.211 C 225.738 89.493,225.770 89.492,225.727 89.202 C 225.669 88.802,225.433 88.554,225.113 88.554 C 224.979 88.554,224.870 88.421,224.870 88.259 C 224.870 87.900,224.437 87.723,224.260 88.010 M177.372 89.282 C 177.372 89.797,177.413 90.008,177.462 89.750 C 177.512 89.493,177.512 89.071,177.462 88.814 C 177.413 88.556,177.372 88.767,177.372 89.282 M223.933 88.739 C 223.933 88.899,224.076 89.084,224.250 89.151 C 224.509 89.250,224.527 89.197,224.347 88.861 C 224.089 88.379,223.933 88.333,223.933 88.739 M226.352 91.881 C 226.894 92.509,227.383 92.978,227.438 92.923 C 227.493 92.868,227.397 92.658,227.224 92.457 C 225.983 91.013,225.716 90.739,225.552 90.739 C 225.450 90.739,225.810 91.253,226.352 91.881 M219.093 91.174 C 219.235 91.356,219.305 91.552,219.248 91.609 C 219.191 91.666,219.355 91.892,219.614 92.110 C 220.083 92.508,220.083 92.508,219.719 92.075 C 219.518 91.836,219.403 91.592,219.463 91.532 C 219.524 91.472,219.407 91.292,219.204 91.133 C 218.876 90.875,218.864 90.880,219.093 91.174 M218.709 92.872 C 219.210 93.434,219.801 93.461,219.335 92.900 C 219.199 92.736,219.039 92.650,218.980 92.709 C 218.921 92.768,218.724 92.703,218.542 92.564 C 218.359 92.426,218.435 92.564,218.709 92.872 M220.689 94.867 C 221.070 95.301,221.282 95.341,221.245 94.971 C 221.236 94.875,221.158 94.796,221.072 94.794 C 220.986 94.792,220.775 94.706,220.604 94.602 C 220.415 94.488,220.449 94.593,220.689 94.867 M171.228 95.595 C 170.980 96.199,171.029 97.108,171.295 96.842 C 171.418 96.719,171.488 96.303,171.451 95.916 C 171.399 95.372,171.349 95.299,171.228 95.595 M262.117 111.655 C 262.117 118.980,262.143 121.947,262.175 118.247 C 262.207 114.547,262.207 108.554,262.175 104.928 C 262.143 101.302,262.117 104.329,262.117 111.655 M179.696 102.029 L 179.084 102.706 179.761 102.094 C 180.133 101.758,180.437 101.454,180.437 101.418 C 180.437 101.257,180.265 101.399,179.696 102.029 M176.991 102.830 C 176.810 103.121,177.265 103.226,177.497 102.946 C 177.669 102.738,177.647 102.671,177.407 102.671 C 177.232 102.671,177.045 102.742,176.991 102.830 M177.833 104.478 C 177.762 104.594,177.626 104.642,177.533 104.584 C 177.439 104.526,177.235 104.642,177.079 104.841 C 176.828 105.161,176.834 105.173,177.126 104.945 C 177.309 104.802,177.506 104.735,177.565 104.794 C 177.624 104.853,177.791 104.758,177.935 104.584 C 178.080 104.409,178.146 104.266,178.081 104.266 C 178.017 104.266,177.905 104.362,177.833 104.478 M96.358 106.274 C 98.081 106.427,100.266 106.439,100.177 106.296 C 100.123 106.210,99.078 106.155,97.855 106.174 C 96.631 106.194,95.957 106.239,96.358 106.274 M109.157 106.276 C 111.153 106.428,113.377 106.439,113.288 106.296 C 113.235 106.210,112.096 106.156,110.758 106.176 C 109.420 106.196,108.699 106.241,109.157 106.276 M122.633 106.293 C 123.291 106.335,124.368 106.335,125.026 106.293 C 125.684 106.252,125.146 106.218,123.829 106.218 C 122.513 106.218,121.975 106.252,122.633 106.293 M130.132 106.293 C 130.795 106.335,131.825 106.335,132.422 106.293 C 133.019 106.251,132.477 106.217,131.217 106.217 C 129.958 106.218,129.470 106.252,130.132 106.293 M148.855 106.291 C 149.285 106.336,149.987 106.336,150.416 106.291 C 150.845 106.246,150.494 106.209,149.636 106.209 C 148.777 106.209,148.426 106.246,148.855 106.291 M156.556 106.292 C 157.099 106.335,157.989 106.335,158.533 106.292 C 159.076 106.250,158.632 106.214,157.544 106.214 C 156.457 106.214,156.012 106.250,156.556 106.292 M303.910 106.293 C 304.572 106.335,305.602 106.335,306.199 106.293 C 306.796 106.251,306.254 106.217,304.995 106.217 C 303.736 106.218,303.247 106.252,303.910 106.293 M230.524 107.319 C 230.291 107.551,230.368 107.735,230.697 107.735 C 230.869 107.735,231.009 107.610,231.009 107.458 C 231.009 107.162,230.754 107.089,230.524 107.319 M190.518 111.186 L 189.906 111.863 190.583 111.251 C 191.213 110.682,191.355 110.510,191.194 110.510 C 191.158 110.510,190.854 110.814,190.518 111.186 M189.583 111.498 L 188.866 112.279 189.646 111.562 C 190.373 110.894,190.522 110.718,190.363 110.718 C 190.329 110.718,189.977 111.069,189.583 111.498 M198.851 113.476 L 196.982 115.401 198.907 113.532 C 200.695 111.796,200.927 111.550,200.776 111.550 C 200.745 111.550,199.879 112.417,198.851 113.476 M230.255 113.067 C 230.238 113.863,230.254 113.892,230.429 113.379 C 230.536 113.068,230.544 112.675,230.448 112.503 C 230.331 112.294,230.267 112.479,230.255 113.067 M197.503 114.152 C 196.650 115.010,195.999 115.713,196.056 115.713 C 196.113 115.713,196.858 115.010,197.711 114.152 C 198.563 113.293,199.214 112.591,199.157 112.591 C 199.100 112.591,198.355 113.293,197.503 114.152 M273.765 118.939 C 273.765 122.258,273.794 123.587,273.829 121.892 C 273.864 120.196,273.864 117.480,273.829 115.856 C 273.794 114.232,273.765 115.619,273.765 118.939 M194.583 115.036 L 193.236 116.441 194.641 115.094 C 195.414 114.354,196.046 113.722,196.046 113.690 C 196.046 113.536,195.834 113.732,194.583 115.036 M193.750 115.245 L 192.404 116.649 193.809 115.303 C 194.581 114.562,195.213 113.930,195.213 113.898 C 195.213 113.745,195.001 113.940,193.750 115.245 M190.423 116.493 L 188.033 118.939 190.479 116.549 C 191.824 115.234,192.924 114.134,192.924 114.103 C 192.924 113.953,192.643 114.222,190.423 116.493 M189.383 116.909 L 186.785 119.563 189.438 116.965 C 191.903 114.551,192.186 114.256,192.036 114.256 C 192.006 114.256,190.812 115.450,189.383 116.909 M185.217 115.869 L 184.079 117.066 185.276 115.928 C 186.387 114.871,186.568 114.672,186.413 114.672 C 186.381 114.672,185.842 115.211,185.217 115.869 M174.768 118.566 C 175.027 118.615,175.402 118.613,175.601 118.561 C 175.800 118.509,175.588 118.468,175.130 118.471 C 174.672 118.473,174.509 118.516,174.768 118.566 M167.345 119.355 C 167.345 119.469,167.617 120.078,167.950 120.708 C 168.283 121.337,168.555 121.759,168.555 121.644 C 168.555 121.530,168.283 120.921,167.950 120.291 C 167.617 119.662,167.345 119.240,167.345 119.355 M158.864 123.309 C 158.865 124.225,158.902 124.573,158.946 124.084 C 158.990 123.594,158.989 122.845,158.944 122.419 C 158.899 121.993,158.864 122.393,158.864 123.309 M249.584 121.892 C 249.784 121.944,250.112 121.944,250.312 121.892 C 250.512 121.839,250.349 121.796,249.948 121.796 C 249.547 121.796,249.383 121.839,249.584 121.892 M194.646 125.078 C 194.646 125.593,194.686 125.804,194.736 125.546 C 194.785 125.289,194.785 124.867,194.736 124.610 C 194.686 124.352,194.646 124.563,194.646 125.078 M198.600 126.951 C 198.600 127.466,198.640 127.677,198.690 127.419 C 198.740 127.162,198.740 126.740,198.690 126.483 C 198.640 126.225,198.600 126.436,198.600 126.951 M173.517 127.103 C 174.004 127.147,174.800 127.147,175.286 127.103 C 175.773 127.060,175.375 127.024,174.402 127.024 C 173.429 127.024,173.031 127.060,173.517 127.103 M201.097 128.824 C 201.097 129.339,201.138 129.550,201.187 129.292 C 201.237 129.035,201.237 128.613,201.187 128.356 C 201.138 128.098,201.097 128.309,201.097 128.824 M197.135 128.824 C 197.135 129.225,197.177 129.389,197.230 129.188 C 197.282 128.988,197.282 128.660,197.230 128.460 C 197.177 128.260,197.135 128.424,197.135 128.824 M196.718 129.240 C 196.718 129.641,196.761 129.805,196.814 129.605 C 196.866 129.404,196.866 129.076,196.814 128.876 C 196.761 128.676,196.718 128.840,196.718 129.240 M195.262 129.657 C 195.262 130.057,195.304 130.221,195.357 130.021 C 195.409 129.820,195.409 129.493,195.357 129.292 C 195.304 129.092,195.262 129.256,195.262 129.657 M200.687 130.697 C 200.687 131.327,200.726 131.584,200.773 131.270 C 200.821 130.955,200.821 130.440,200.773 130.125 C 200.726 129.810,200.687 130.068,200.687 130.697 M172.665 130.749 C 172.792 130.955,174.226 130.944,174.556 130.735 C 174.699 130.644,174.313 130.576,173.691 130.582 C 173.074 130.588,172.612 130.663,172.665 130.749 M199.216 131.946 C 199.216 132.347,199.259 132.510,199.311 132.310 C 199.363 132.110,199.363 131.782,199.311 131.582 C 199.259 131.381,199.216 131.545,199.216 131.946 M211.954 132.830 L 211.342 133.507 212.019 132.896 C 212.391 132.559,212.695 132.255,212.695 132.219 C 212.695 132.058,212.523 132.200,211.954 132.830 M198.786 133.130 C 198.767 133.610,198.658 134.060,198.543 134.131 C 198.429 134.202,198.335 134.369,198.335 134.502 C 198.335 134.635,198.481 134.535,198.660 134.280 C 198.863 133.991,198.954 133.524,198.903 133.037 L 198.821 132.258 198.786 133.130 M173.361 132.778 C 173.361 132.893,173.572 132.985,173.829 132.983 C 174.208 132.981,174.238 132.941,173.985 132.778 C 173.582 132.518,173.361 132.518,173.361 132.778 M213.946 133.296 C 213.804 133.467,213.621 133.565,213.538 133.513 C 213.456 133.462,212.979 133.838,212.478 134.348 C 211.977 134.858,211.646 135.276,211.741 135.276 C 211.836 135.276,211.789 135.440,211.636 135.640 C 211.483 135.840,211.658 135.730,212.025 135.395 C 212.391 135.060,212.646 134.741,212.591 134.686 C 212.444 134.539,212.923 134.015,213.103 134.126 C 213.187 134.178,213.522 133.943,213.847 133.603 C 214.172 133.264,214.385 132.986,214.320 132.986 C 214.256 132.986,214.087 133.126,213.946 133.296 M215.103 133.595 C 214.908 133.810,214.836 134.040,214.943 134.106 C 215.050 134.171,215.296 134.050,215.490 133.835 C 215.685 133.620,215.757 133.390,215.650 133.324 C 215.543 133.258,215.297 133.380,215.103 133.595 M197.343 134.027 C 197.343 134.428,197.386 134.592,197.438 134.391 C 197.490 134.191,197.490 133.863,197.438 133.663 C 197.386 133.463,197.343 133.626,197.343 134.027 M195.470 134.235 C 195.470 134.636,195.513 134.800,195.565 134.599 C 195.617 134.399,195.617 134.071,195.565 133.871 C 195.513 133.671,195.470 133.835,195.470 134.235 M196.927 134.235 C 196.927 134.636,196.969 134.800,197.022 134.599 C 197.074 134.399,197.074 134.071,197.022 133.871 C 196.969 133.671,196.927 133.835,196.927 134.235 M210.497 134.287 L 209.886 134.964 210.562 134.352 C 210.934 134.016,211.238 133.712,211.238 133.676 C 211.238 133.515,211.067 133.657,210.497 134.287 M195.058 134.755 C 195.060 135.213,195.103 135.376,195.152 135.117 C 195.202 134.858,195.200 134.484,195.148 134.285 C 195.096 134.086,195.055 134.298,195.058 134.755 M214.873 135.744 L 213.840 136.837 214.932 135.804 C 215.533 135.236,216.025 134.744,216.025 134.711 C 216.025 134.556,215.832 134.729,214.873 135.744 M216.740 135.536 L 216.129 136.212 216.805 135.601 C 217.436 135.031,217.577 134.860,217.417 134.860 C 217.381 134.860,217.076 135.164,216.740 135.536 M212.393 136.305 C 212.078 136.653,212.075 136.695,212.367 136.652 C 212.824 136.585,213.199 136.187,212.949 136.033 C 212.840 135.965,212.590 136.088,212.393 136.305 M215.504 136.734 C 215.296 136.963,215.188 137.213,215.263 137.289 C 215.339 137.364,215.401 137.312,215.401 137.171 C 215.401 137.026,215.513 136.981,215.661 137.066 C 215.804 137.148,215.851 137.139,215.767 137.045 C 215.682 136.952,215.717 136.749,215.844 136.596 C 216.211 136.154,215.922 136.271,215.504 136.734 M177.408 137.583 C 177.331 137.708,177.362 137.903,177.476 138.018 C 177.615 138.156,177.738 138.140,177.844 137.967 C 177.947 137.801,177.919 137.762,177.764 137.857 C 177.632 137.939,177.523 137.914,177.523 137.803 C 177.523 137.691,177.640 137.552,177.784 137.495 C 177.971 137.419,177.975 137.385,177.796 137.373 C 177.660 137.364,177.485 137.459,177.408 137.583 M222.257 139.386 L 221.540 140.166 222.320 139.449 C 223.047 138.782,223.197 138.606,223.038 138.606 C 223.003 138.606,222.652 138.957,222.257 139.386 M214.984 143.184 C 214.984 143.433,215.551 143.433,216.129 143.184 C 216.463 143.041,216.391 143.002,215.765 142.991 C 215.336 142.983,214.984 143.070,214.984 143.184 M213.210 144.008 C 213.284 144.127,213.588 144.225,213.887 144.225 C 214.539 144.225,214.464 144.125,213.666 143.934 C 213.279 143.841,213.122 143.866,213.210 144.008 M210.458 145.409 C 210.658 145.461,210.986 145.461,211.186 145.409 C 211.387 145.356,211.223 145.314,210.822 145.314 C 210.421 145.314,210.258 145.356,210.458 145.409 " stroke="none" fill="#68a9d1" fill-rule="evenodd"></path><path id="path3" d="M266.687 103.434 C 266.687 106.238,266.717 107.386,266.753 105.983 C 266.789 104.581,266.789 102.287,266.753 100.884 C 266.717 99.482,266.687 100.630,266.687 103.434 M251.467 99.688 C 251.467 100.317,251.506 100.575,251.554 100.260 C 251.602 99.945,251.602 99.430,251.554 99.116 C 251.506 98.801,251.467 99.058,251.467 99.688 M81.426 103.375 C 81.740 103.423,82.255 103.423,82.570 103.375 C 82.885 103.327,82.627 103.288,81.998 103.288 C 81.368 103.288,81.111 103.327,81.426 103.375 M253.206 107.024 C 253.259 107.110,254.327 107.180,255.579 107.180 C 256.832 107.180,257.856 107.110,257.856 107.024 C 257.856 106.938,256.788 106.868,255.483 106.868 C 254.178 106.868,253.153 106.938,253.206 107.024 M88.614 107.542 C 89.334 107.583,90.457 107.583,91.111 107.542 C 91.765 107.501,91.176 107.467,89.802 107.468 C 88.429 107.468,87.894 107.502,88.614 107.542 M289.857 109.200 C 290.116 109.250,290.490 109.248,290.689 109.196 C 290.888 109.144,290.676 109.103,290.219 109.106 C 289.761 109.108,289.598 109.150,289.857 109.200 M137.307 109.616 C 137.566 109.666,137.941 109.664,138.140 109.612 C 138.339 109.560,138.127 109.519,137.669 109.522 C 137.211 109.524,137.048 109.567,137.307 109.616 M148.855 109.829 C 149.285 109.874,149.987 109.874,150.416 109.829 C 150.845 109.784,150.494 109.747,149.636 109.747 C 148.777 109.747,148.426 109.784,148.855 109.829 M156.556 109.830 C 157.099 109.873,157.989 109.873,158.533 109.830 C 159.076 109.788,158.632 109.752,157.544 109.752 C 156.457 109.752,156.012 109.788,156.556 109.830 M284.807 111.550 L 282.518 111.676 284.743 111.717 C 286.048 111.742,287.021 111.673,287.097 111.550 C 287.168 111.436,287.196 111.361,287.161 111.383 C 287.126 111.406,286.067 111.481,284.807 111.550 M266.597 119.244 L 266.597 124.856 264.360 124.923 L 262.123 124.990 264.464 125.034 L 266.805 125.078 266.805 119.355 C 266.805 116.207,266.759 113.632,266.701 113.632 C 266.644 113.632,266.597 116.157,266.597 119.244 M141.787 115.401 C 141.788 115.973,141.829 116.182,141.877 115.866 C 141.925 115.550,141.923 115.081,141.874 114.825 C 141.824 114.569,141.785 114.828,141.787 115.401 M133.243 115.713 C 133.243 116.113,133.286 116.277,133.338 116.077 C 133.390 115.877,133.390 115.549,133.338 115.349 C 133.286 115.148,133.243 115.312,133.243 115.713 M89.376 122.633 L 88.554 123.517 89.438 122.694 C 90.261 121.929,90.418 121.748,90.261 121.748 C 90.227 121.748,89.829 122.146,89.376 122.633 M133.450 127.724 L 133.403 132.140 131.165 132.207 L 128.928 132.274 131.172 132.318 C 133.886 132.371,133.635 132.871,133.559 127.570 L 133.498 123.309 133.450 127.724 M96.826 125.024 C 97.484 125.065,98.561 125.065,99.220 125.024 C 99.878 124.982,99.339 124.949,98.023 124.949 C 96.707 124.949,96.168 124.982,96.826 125.024 M274.982 125.024 C 275.644 125.065,276.674 125.065,277.271 125.023 C 277.868 124.981,277.326 124.947,276.067 124.948 C 274.807 124.948,274.319 124.983,274.982 125.024 M294.849 125.023 C 295.450 125.065,296.433 125.065,297.034 125.023 C 297.635 124.981,297.144 124.947,295.942 124.947 C 294.740 124.947,294.248 124.981,294.849 125.023 M303.902 125.024 C 304.560 125.065,305.637 125.065,306.296 125.024 C 306.954 124.982,306.415 124.949,305.099 124.949 C 303.783 124.949,303.244 124.982,303.902 125.024 M155.203 125.230 C 155.689 125.274,156.485 125.274,156.972 125.230 C 157.458 125.187,157.060 125.151,156.087 125.151 C 155.114 125.151,154.716 125.187,155.203 125.230 M137.828 125.436 C 138.144 125.483,138.613 125.482,138.869 125.433 C 139.125 125.383,138.866 125.344,138.293 125.346 C 137.721 125.347,137.512 125.388,137.828 125.436 M287.669 125.435 C 287.984 125.483,288.499 125.483,288.814 125.435 C 289.129 125.388,288.871 125.349,288.241 125.349 C 287.612 125.349,287.354 125.388,287.669 125.435 M323.157 125.437 C 323.531 125.483,324.093 125.482,324.405 125.435 C 324.718 125.387,324.412 125.349,323.725 125.351 C 323.039 125.352,322.783 125.391,323.157 125.437 M248.751 128.145 C 249.295 128.188,250.185 128.188,250.728 128.145 C 251.272 128.102,250.827 128.067,249.740 128.067 C 248.652 128.067,248.208 128.102,248.751 128.145 " stroke="none" fill="#8bb1b0" fill-rule="evenodd"></path><path id="path4" d="M198.275 78.958 C 197.300 79.861,197.339 82.004,198.374 84.495 C 199.031 86.075,199.058 85.601,198.427 83.577 C 197.739 81.371,197.779 79.793,198.545 78.979 C 199.166 78.318,198.981 78.303,198.275 78.958 M200.108 78.957 C 198.904 80.161,199.597 83.918,201.629 87.201 C 202.333 88.338,202.161 87.639,201.267 85.721 C 199.670 82.300,199.392 80.071,200.423 78.973 C 201.042 78.314,200.766 78.300,200.108 78.957 M196.405 79.033 C 195.169 80.398,195.443 82.696,197.304 86.553 C 197.877 87.743,198.399 88.663,198.463 88.599 C 198.527 88.535,198.205 87.697,197.749 86.736 C 195.886 82.816,195.559 80.226,196.772 79.013 C 196.961 78.823,197.030 78.668,196.925 78.668 C 196.820 78.668,196.586 78.832,196.405 79.033 M201.937 79.136 C 201.101 80.056,201.167 81.939,202.105 83.952 C 202.547 84.901,202.508 84.458,201.988 82.629 C 201.556 81.107,201.582 80.159,202.079 79.344 C 202.563 78.550,202.523 78.491,201.937 79.136 M194.256 79.608 C 193.532 80.711,193.752 83.247,194.768 85.536 C 195.317 86.771,195.328 86.139,194.785 84.580 C 194.180 82.841,194.038 80.847,194.449 79.865 C 194.827 78.962,194.748 78.857,194.256 79.608 M192.634 79.684 C 191.406 81.041,191.879 84.137,193.925 88.137 C 194.966 90.174,195.079 89.808,194.067 87.676 C 192.396 84.155,191.916 81.527,192.678 80.073 C 193.142 79.188,193.135 79.130,192.634 79.684 M190.409 80.793 C 189.997 81.788,190.127 83.561,190.758 85.542 C 191.067 86.512,191.358 87.194,191.406 87.059 C 191.454 86.923,191.296 86.176,191.055 85.397 C 190.425 83.356,190.307 81.854,190.704 80.905 C 190.883 80.476,190.952 80.125,190.858 80.125 C 190.763 80.125,190.561 80.425,190.409 80.793 M188.845 80.905 C 187.873 82.369,188.502 86.034,190.319 89.490 C 191.298 91.351,191.236 90.568,190.235 88.426 C 188.779 85.309,188.316 82.420,189.047 81.009 C 189.474 80.184,189.363 80.126,188.845 80.905 M185.147 88.137 C 185.227 88.595,185.289 89.368,185.285 89.854 C 185.278 90.524,185.356 90.739,185.604 90.739 C 185.847 90.739,185.871 90.678,185.696 90.504 C 185.529 90.336,185.525 90.168,185.683 89.915 C 185.849 89.649,185.792 89.282,185.452 88.433 C 185.028 87.375,185.009 87.357,185.147 88.137 M213.319 87.971 C 213.319 88.312,215.985 91.684,217.481 93.236 C 218.980 94.792,218.756 94.433,216.832 92.196 C 216.094 91.337,215.082 90.073,214.583 89.386 C 213.450 87.826,213.319 87.680,213.319 87.971 M216.441 87.991 C 216.441 88.422,220.012 92.619,220.894 93.224 C 221.135 93.389,220.693 92.842,219.912 92.008 C 219.131 91.174,218.069 89.915,217.551 89.210 C 216.425 87.677,216.441 87.695,216.441 87.991 M180.853 88.462 C 180.853 88.697,180.947 88.832,181.061 88.762 C 181.176 88.691,181.270 88.498,181.270 88.333 C 181.270 88.168,181.176 88.033,181.061 88.033 C 180.947 88.033,180.853 88.226,180.853 88.462 M224.530 89.769 C 224.658 89.923,224.693 90.134,224.608 90.238 C 224.523 90.342,224.540 90.356,224.645 90.270 C 224.750 90.184,225.027 90.278,225.260 90.478 C 225.587 90.759,225.567 90.690,225.173 90.178 C 224.892 89.812,224.580 89.508,224.480 89.502 C 224.380 89.495,224.403 89.616,224.530 89.769 M219.737 90.479 C 220.081 90.908,220.858 91.727,221.464 92.300 L 222.566 93.340 221.531 92.196 C 220.962 91.566,220.246 90.747,219.939 90.375 C 219.633 90.003,219.321 89.698,219.247 89.698 C 219.172 89.698,219.393 90.049,219.737 90.479 M179.489 91.155 C 179.526 91.899,179.637 92.535,179.736 92.568 C 180.042 92.670,180.035 91.934,179.721 90.843 L 179.422 89.802 179.489 91.155 M177.732 90.751 C 177.732 90.987,177.825 91.122,177.940 91.051 C 178.054 90.980,178.148 90.787,178.148 90.622 C 178.148 90.458,178.054 90.323,177.940 90.323 C 177.825 90.323,177.732 90.515,177.732 90.751 M218.236 92.196 C 219.116 93.111,219.873 93.861,219.919 93.861 C 219.965 93.861,219.366 93.111,218.588 92.196 C 217.810 91.280,217.052 90.531,216.904 90.531 C 216.757 90.531,217.356 91.280,218.236 92.196 M214.112 91.519 C 214.077 91.605,214.828 92.471,215.782 93.444 C 217.822 95.525,217.914 95.378,216.025 93.055 C 214.777 91.519,214.277 91.118,214.112 91.519 M178.344 99.613 C 177.607 100.366,176.722 101.159,176.379 101.375 C 175.847 101.709,175.818 101.768,176.184 101.768 C 176.601 101.769,179.983 98.540,179.779 98.336 C 179.728 98.285,179.082 98.859,178.344 99.613 M151.093 103.746 L 151.093 106.348 149.636 106.348 L 148.179 106.348 148.179 108.012 L 148.179 109.677 149.622 109.677 L 151.065 109.677 151.131 115.869 C 151.222 124.427,151.574 125.078,156.114 125.078 C 158.870 125.078,158.793 125.129,158.793 123.287 L 158.793 121.748 157.743 121.748 C 156.906 121.748,156.589 121.645,156.182 121.237 L 155.671 120.727 155.671 115.202 L 155.671 109.677 157.544 109.677 L 159.417 109.677 159.417 108.012 L 159.417 106.348 157.544 106.348 L 155.671 106.348 155.671 103.746 L 155.671 101.145 153.382 101.145 L 151.093 101.145 151.093 103.746 M178.295 103.642 C 177.234 104.788,176.819 105.099,176.350 105.102 C 175.620 105.105,174.818 105.308,174.818 105.490 C 174.818 106.193,177.126 105.323,178.066 104.265 C 180.340 101.707,180.506 101.253,178.295 103.642 M177.218 102.802 C 176.969 103.077,176.446 103.256,175.625 103.349 C 174.952 103.425,174.402 103.581,174.402 103.696 C 174.402 103.821,174.714 103.853,175.182 103.776 C 175.611 103.705,176.156 103.646,176.392 103.644 C 176.628 103.643,177.029 103.361,177.282 103.018 C 177.806 102.309,177.771 102.191,177.218 102.802 M188.971 104.943 C 187.900 105.887,186.979 106.795,186.925 106.960 C 186.872 107.125,187.778 106.431,188.939 105.417 C 190.730 103.855,191.317 103.226,190.985 103.226 C 190.949 103.226,190.043 103.998,188.971 104.943 M192.698 106.323 C 190.608 108.075,189.673 108.993,189.826 109.146 C 189.911 109.231,191.559 107.837,193.928 105.675 C 195.544 104.200,194.706 104.642,192.698 106.323 M188.695 107.503 C 186.419 109.571,185.568 110.527,186.234 110.267 C 186.595 110.126,191.551 105.321,191.444 105.215 C 191.384 105.154,190.147 106.184,188.695 107.503 M140.479 108.211 C 140.479 110.224,140.536 110.583,141.006 111.488 C 142.130 113.654,142.131 117.267,141.009 119.560 C 140.509 120.582,140.469 120.857,140.523 122.882 L 140.583 125.090 141.671 124.547 C 148.190 121.296,147.977 108.590,141.363 106.261 L 140.479 105.950 140.479 108.211 M197.711 106.601 C 195.474 108.551,192.924 110.986,192.924 111.171 C 192.924 111.395,194.230 110.289,196.982 107.731 C 198.593 106.235,199.186 105.314,197.711 106.601 M178.790 107.556 L 177.720 108.786 176.018 108.928 C 174.417 109.061,174.005 109.155,174.211 109.339 C 174.259 109.381,175.073 109.369,176.021 109.311 L 177.744 109.207 178.912 107.876 C 179.555 107.145,180.031 106.496,179.970 106.436 C 179.910 106.375,179.379 106.879,178.790 107.556 M177.523 106.707 C 177.523 106.835,176.750 106.989,175.683 107.073 C 174.671 107.153,173.711 107.308,173.550 107.416 C 173.362 107.542,173.968 107.564,175.234 107.477 C 177.082 107.351,178.051 107.013,177.667 106.630 C 177.588 106.551,177.523 106.586,177.523 106.707 M193.740 107.737 C 191.745 109.499,189.178 112.036,189.178 112.245 C 189.178 112.346,190.091 111.588,191.207 110.560 C 192.323 109.532,193.704 108.266,194.277 107.748 C 194.849 107.229,195.263 106.749,195.196 106.681 C 195.130 106.612,194.474 107.087,193.740 107.737 M199.067 110.214 C 196.465 112.629,195.853 113.304,196.072 113.517 C 196.115 113.558,197.494 112.284,199.137 110.685 C 202.904 107.021,202.855 106.697,199.067 110.214 M195.917 110.683 C 192.618 113.749,191.973 114.414,192.139 114.581 C 192.237 114.679,194.319 112.772,198.428 108.824 C 198.766 108.499,198.989 108.181,198.924 108.116 C 198.860 108.052,197.507 109.207,195.917 110.683 M206.951 111.588 C 202.297 116.654,202.081 116.900,202.081 117.146 C 202.081 117.402,204.102 115.310,207.284 111.759 C 208.464 110.442,209.618 109.155,209.849 108.898 C 210.080 108.641,210.220 108.382,210.160 108.322 C 210.101 108.262,208.656 109.732,206.951 111.588 M198.803 113.033 C 196.829 114.974,195.213 116.666,195.213 116.794 C 195.213 117.015,201.012 111.460,202.053 110.241 C 203.347 108.726,202.068 109.825,198.803 113.033 M179.577 111.514 L 178.668 112.539 176.278 112.683 C 174.031 112.819,173.585 112.892,173.795 113.089 C 173.842 113.134,174.982 113.121,176.326 113.060 L 178.771 112.949 179.733 111.824 C 180.944 110.406,180.806 110.131,179.577 111.514 M231.634 110.718 C 231.634 110.832,231.961 110.926,232.362 110.926 C 232.763 110.926,233.091 110.832,233.091 110.718 C 233.091 110.604,232.763 110.510,232.362 110.510 C 231.961 110.510,231.634 110.604,231.634 110.718 M175.026 110.857 C 173.680 110.992,172.945 111.152,172.945 111.311 C 172.945 111.397,173.483 111.401,174.142 111.319 C 174.800 111.237,175.970 111.161,176.743 111.152 C 177.529 111.142,178.148 111.043,178.148 110.926 C 178.148 110.728,176.649 110.695,175.026 110.857 M206.348 114.905 C 203.267 118.348,202.164 119.747,203.330 118.730 C 203.950 118.190,208.467 113.137,209.242 112.117 C 210.613 110.314,209.471 111.413,206.348 114.905 M209.573 113.895 C 208.715 114.928,207.233 116.653,206.280 117.727 C 205.328 118.802,204.584 119.787,204.627 119.917 C 204.705 120.150,209.707 114.467,210.757 112.951 C 211.752 111.516,211.154 111.992,209.573 113.895 M232.258 114.256 C 232.258 114.370,232.445 114.464,232.674 114.464 C 232.903 114.464,233.091 114.370,233.091 114.256 C 233.091 114.142,232.903 114.048,232.674 114.048 C 232.445 114.048,232.258 114.142,232.258 114.256 M169.173 116.233 C 169.838 117.585,170.111 117.863,170.619 117.701 C 171.242 117.504,171.191 117.205,170.555 117.326 C 170.141 117.405,169.966 117.294,169.671 116.761 C 169.083 115.701,168.725 115.321,169.173 116.233 M208.527 117.941 C 207.580 119.062,206.434 120.368,205.980 120.844 C 205.526 121.320,205.193 121.823,205.239 121.962 C 205.315 122.190,207.585 119.703,209.666 117.112 C 211.180 115.228,210.246 115.908,208.527 117.941 M217.051 120.658 C 215.243 123.514,214.860 124.481,216.495 122.060 C 217.906 119.970,218.809 118.427,218.689 118.307 C 218.638 118.257,217.901 119.315,217.051 120.658 M172.425 118.724 C 172.310 118.759,171.677 118.900,171.017 119.035 C 170.357 119.171,169.866 119.360,169.925 119.455 C 169.984 119.551,170.524 119.498,171.124 119.338 C 171.725 119.178,172.521 119.046,172.893 119.045 C 173.265 119.044,173.569 118.949,173.569 118.835 C 173.569 118.641,172.900 118.576,172.425 118.724 M232.466 119.667 C 232.222 119.825,232.276 119.869,232.714 119.872 C 233.022 119.874,233.332 119.781,233.403 119.667 C 233.567 119.401,232.877 119.401,232.466 119.667 M169.670 120.708 C 170.012 121.285,169.956 121.274,171.332 121.038 C 171.876 120.945,172.320 120.775,172.320 120.661 C 172.320 120.542,172.090 120.512,171.776 120.591 C 170.252 120.973,170.014 120.972,169.687 120.579 C 169.388 120.219,169.387 120.230,169.670 120.708 M230.593 121.572 C 230.593 121.669,231.015 121.748,231.530 121.748 C 232.752 121.748,232.752 121.442,231.530 121.416 C 231.015 121.405,230.593 121.475,230.593 121.572 M172.340 122.182 C 171.607 122.277,170.904 122.465,170.779 122.600 C 170.607 122.786,170.678 122.811,171.072 122.702 C 171.358 122.624,172.365 122.504,173.309 122.437 C 174.253 122.369,175.026 122.233,175.026 122.135 C 175.026 121.926,174.201 121.941,172.340 122.182 M229.136 123.158 C 229.136 123.272,229.347 123.421,229.605 123.490 C 230.342 123.688,231.426 123.642,231.426 123.413 C 231.426 123.299,231.059 123.205,230.610 123.205 C 230.162 123.205,229.647 123.148,229.466 123.079 C 229.284 123.009,229.136 123.045,229.136 123.158 M172.633 123.760 C 171.640 123.882,170.239 124.286,170.239 124.450 C 170.239 124.533,170.728 124.474,171.325 124.319 C 171.923 124.164,172.812 124.037,173.302 124.037 C 173.793 124.037,174.194 123.944,174.194 123.829 C 174.194 123.624,173.861 123.610,172.633 123.760 M231.270 125.017 C 231.012 125.066,230.801 125.188,230.801 125.286 C 230.801 125.385,231.095 125.381,231.454 125.278 C 232.599 124.950,232.481 124.783,231.270 125.017 M190.047 125.560 C 189.345 126.307,189.496 126.707,190.219 126.015 C 190.562 125.686,190.843 125.340,190.843 125.247 C 190.843 124.939,190.505 125.071,190.047 125.560 M171.939 125.468 C 171.684 125.630,176.523 125.556,177.003 125.390 C 177.118 125.351,176.087 125.313,174.714 125.306 C 173.340 125.298,172.092 125.372,171.939 125.468 M216.152 128.004 C 215.477 128.899,214.192 130.456,213.296 131.465 C 212.401 132.473,211.669 133.392,211.670 133.507 C 211.675 133.920,216.685 128.051,217.286 126.929 C 217.771 126.022,217.330 126.440,216.152 128.004 M171.904 126.947 C 171.618 127.036,172.414 127.060,173.673 127.001 C 174.932 126.942,176.002 126.860,176.049 126.818 C 176.220 126.670,172.414 126.788,171.904 126.947 M217.209 129.025 C 216.429 130.052,215.235 131.505,214.555 132.255 C 212.936 134.042,212.970 134.306,214.599 132.592 C 216.143 130.967,219.008 127.159,218.686 127.159 C 218.653 127.159,217.989 127.999,217.209 129.025 M218.823 129.188 C 218.257 129.961,217.115 131.403,216.285 132.394 C 215.455 133.385,214.776 134.255,214.776 134.327 C 214.776 134.730,219.157 129.347,219.787 128.171 C 220.178 127.439,219.850 127.786,218.823 129.188 M172.425 128.305 C 172.892 128.466,177.106 128.536,176.857 128.377 C 176.708 128.283,175.604 128.212,174.402 128.219 C 173.200 128.227,172.310 128.265,172.425 128.305 M219.864 129.917 C 219.189 130.861,218.133 132.226,217.520 132.950 C 216.906 133.674,216.447 134.310,216.500 134.363 C 216.671 134.534,220.194 130.015,221.101 128.460 C 221.544 127.700,220.946 128.404,219.864 129.917 M221.197 130.125 C 220.714 130.840,219.821 132.045,219.212 132.801 C 217.973 134.343,217.685 134.985,218.864 133.578 C 220.315 131.848,222.420 128.824,222.175 128.824 C 222.120 128.824,221.680 129.409,221.197 130.125 M228.512 129.448 C 228.512 129.712,228.937 129.712,229.344 129.448 C 229.588 129.291,229.530 129.246,229.084 129.244 C 228.770 129.242,228.512 129.334,228.512 129.448 M227.471 131.113 C 227.471 131.377,227.897 131.377,228.304 131.113 C 228.547 130.956,228.490 130.911,228.044 130.908 C 227.729 130.907,227.471 130.999,227.471 131.113 M179.513 131.342 C 179.560 131.418,180.232 131.546,181.006 131.626 C 182.383 131.767,182.444 131.800,183.767 133.078 C 185.489 134.741,188.805 137.633,189.664 138.220 C 190.492 138.786,190.153 138.455,187.929 136.526 C 186.956 135.682,185.386 134.236,184.440 133.313 L 182.719 131.634 181.073 131.419 C 180.168 131.301,179.466 131.266,179.513 131.342 M180.760 132.841 C 181.928 133.073,182.175 133.232,184.205 135.068 C 186.646 137.275,189.366 139.535,187.805 138.059 C 186.314 136.649,182.872 133.520,182.420 133.163 C 182.181 132.974,181.426 132.768,180.743 132.705 L 179.501 132.591 180.760 132.841 M222.685 133.149 C 222.685 133.395,222.861 133.535,223.205 133.563 C 223.676 133.602,223.701 133.566,223.467 133.192 C 223.146 132.678,222.685 132.653,222.685 133.149 M180.991 134.083 C 181.534 134.243,182.313 134.769,183.073 135.486 C 184.367 136.709,186.986 138.966,187.527 139.325 C 187.707 139.445,187.382 139.121,186.805 138.606 C 186.228 138.091,184.855 136.857,183.754 135.864 C 182.148 134.416,181.590 134.035,180.938 133.943 L 180.125 133.827 180.991 134.083 M181.061 135.219 C 181.328 135.320,183.159 136.871,185.276 138.789 C 185.591 139.075,185.848 139.256,185.848 139.193 C 185.848 138.950,181.297 135.069,181.031 135.084 C 180.823 135.096,180.832 135.132,181.061 135.219 M189.594 135.237 C 189.594 135.330,189.899 135.625,190.271 135.892 L 190.947 136.379 190.336 135.723 C 189.688 135.028,189.594 134.967,189.594 135.237 M181.686 136.837 C 182.074 137.237,182.439 137.565,182.496 137.565 C 182.553 137.565,182.282 137.237,181.894 136.837 C 181.506 136.436,181.141 136.108,181.084 136.108 C 181.027 136.108,181.297 136.436,181.686 136.837 M183.351 138.293 C 183.739 138.694,184.104 139.022,184.161 139.022 C 184.218 139.022,183.947 138.694,183.559 138.293 C 183.170 137.893,182.806 137.565,182.749 137.565 C 182.692 137.565,182.962 137.893,183.351 138.293 M186.246 139.508 C 186.550 139.887,187.721 140.779,187.721 140.632 C 187.721 140.586,187.323 140.232,186.837 139.845 C 186.350 139.459,186.084 139.307,186.246 139.508 M200.208 140.479 C 199.807 140.698,199.573 140.877,199.688 140.877 C 199.802 140.877,200.224 140.698,200.624 140.479 C 201.025 140.259,201.259 140.080,201.145 140.080 C 201.030 140.080,200.609 140.259,200.208 140.479 M199.844 142.785 C 200.044 142.901,200.208 143.123,200.208 143.276 C 200.208 143.568,200.812 143.898,201.001 143.709 C 201.061 143.649,201.001 143.600,200.867 143.600 C 200.472 143.600,200.591 143.185,200.989 143.175 C 201.189 143.170,200.978 143.031,200.520 142.866 C 199.545 142.515,199.338 142.490,199.844 142.785 " stroke="none" fill="#3b94cc" fill-rule="evenodd"></path></g></svg>